<?xml version="1.0" encoding="utf-8"?><svg fill="none" height="100%" width="100%" viewBox="0 0 1920 1080" xmlns:xlink="http://www.w3.org/1999/xlink" xmlns="http://www.w3.org/2000/svg"><defs><clipPath id="cp-1920-1080"><rect height="1080" width="1920" y="0" x="0" /></clipPath><g id="comp_1"><g transform="matrix(1,0,0,1,0,0)" id="Layer 2"><g id="Group 1" transform="matrix(1,0,0,1,844.781,411.876)"><g id="Group 1"><path fill="#60547b" fill-opacity="1" d="M54.989,-37.928C-15.685,-109.412,-106.195,-0.754,-19.405,61.422" /></g></g></g><g transform="matrix(1,0,0,1,0,0)" id="Layer 3"><g id="Group 4" transform="matrix(1,0,0,1,0,0)"><g id="Group 1" transform="matrix(1,0,0,1,797.183,389.905)"><g id="Group 1"><path fill="#000072" fill-opacity="1" d="M-0.002,-0.021C-0.002,-0.021,-0.001,-0.004,0.002,0.021C0,-0.002,-0.002,-0.021,-0.002,-0.021Z" /></g></g></g><g id="Group 3" transform="matrix(1,0,0,1,0,0)"><g id="Group 1" transform="matrix(1,0,0,1,797.208,390.154)"><g id="Group 1"><path fill="#000072" fill-opacity="1" d="M-0.003,-0.023C-0.002,-0.009,0.002,0.007,0.003,0.023C0.002,0.008,-0.002,-0.009,-0.003,-0.023Z" /></g></g></g><g id="Group 2" transform="matrix(1,0,0,1,0,0)"><g id="Group 1" transform="matrix(1,0,0,1,827.229,432.026)"><g id="Group 1"><path fill="#000072" fill-opacity="1" d="M29.268,-12.957C29.6,-13.196,29.926,-13.421,30.262,-13.668C-13.473,18.514,-25.885,-19.687,-29.055,-35.711C-33.667,-12.747,-25.523,14.115,3.337,35.711C3.337,35.711,28.65,1.905,28.65,1.905C28.65,1.905,30.253,-13.575,30.253,-13.575C29.925,-13.369,29.592,-13.154,29.268,-12.957Z" /></g></g></g><g id="Group 1" transform="matrix(1,0,0,1,0,0)"><g id="Group 1" transform="matrix(1,0,0,1,797.191,389.99)"><g id="Group 1"><path fill="#000072" fill-opacity="1" d="M-0.003,-0.036C-0.001,-0.016,0,0.007,0.003,0.036C0,0.01,-0.001,-0.018,-0.003,-0.036Z" /></g></g></g></g><g transform="matrix(1,0,0,1,0,0)" id="Layer 6"><g id="Group 1" transform="matrix(1,0,0,1,1095.628,395.917)"><g id="Group 1"><path fill="#60547b" fill-opacity="1" d="M-59.044,-32.689C-1.023,-100.626,111.511,-24.191,30.969,58.855" /></g></g></g><g transform="matrix(1,0,0,1,0,0)" id="Layer 7"><g id="Group 1" transform="matrix(1,0,0,1,0,0)"><g id="Group 1" transform="matrix(1,0,0,1,1100.08,412.616)"><g id="Group 1"><path fill="#000072" fill-opacity="1" d="M10.814,39.82C13.74,39.63,16.779,38.918,16.779,38.918C16.779,38.918,41.6,23.892,46.677,-13.552C46.679,-13.554,46.681,-13.557,46.682,-13.559C36.885,-1.054,12.274,9.759,-46.682,-40.89C-46.682,-40.89,-16.65,4.53,-16.65,4.53C-16.65,4.53,-7.662,27.75,-7.662,27.75C-7.662,27.75,9.056,37.803,10.933,39.942C11.52,40.611,12.811,40.861,14.308,40.89C12.811,40.861,11.52,40.611,10.933,39.942C10.901,39.906,10.854,39.861,10.814,39.82Z" /></g></g></g></g><g transform="matrix(1,0,0,1,0,0)" id="Layer 27"><g id="Group 1" transform="matrix(1,0,0,1,844.779,411.885)"><g id="Group 1"><path fill="#000072" fill-opacity="1" d="M-19.405,65.211C-20.171,65.211,-20.944,64.981,-21.615,64.501C-49.002,44.881,-62.266,17.945,-58.006,-9.401C-54.166,-34.047,-36.703,-54.814,-13.516,-62.308C10.445,-70.05,36.4,-62.143,57.692,-40.607C59.167,-39.116,59.152,-36.711,57.661,-35.236C56.17,-33.762,53.763,-33.776,52.29,-35.267C32.806,-54.974,10.268,-62.01,-11.181,-55.079C-31.665,-48.459,-47.099,-30.071,-50.501,-8.232C-52.735,6.113,-51.378,33.834,-17.19,58.326C-15.486,59.548,-15.092,61.92,-16.314,63.625C-17.056,64.66,-18.222,65.211,-19.405,65.211Z" /></g></g></g><g transform="matrix(1,0,0,1,0,0)" id="Layer 28"><g id="Group 1" transform="matrix(1,0,0,1,1095.637,395.895)"><g id="Group 1"><path fill="#000072" fill-opacity="1" d="M30.96,62.675C30.007,62.675,29.054,62.318,28.316,61.603C26.811,60.143,26.774,57.737,28.234,56.232C51.043,32.713,59.828,7.47,52.968,-14.848C46.987,-34.307,29.761,-49.194,8.014,-53.7C-15.802,-58.635,-39.196,-50.071,-56.165,-30.201C-57.527,-28.605,-59.926,-28.417,-61.519,-29.78C-63.114,-31.142,-63.304,-33.539,-61.941,-35.134C-43.117,-57.174,-17.057,-66.652,9.556,-61.138C34.018,-56.069,53.433,-39.188,60.228,-17.08C67.939,8.007,58.513,35.922,33.686,61.521C32.941,62.289,31.951,62.675,30.96,62.675Z" /></g></g></g></g><g id="comp_0"><g transform="matrix(1,0,0,1,0,0)" id="Layer 35"><g id="Group 2" transform="matrix(1,0,0,1,0,0)"><g id="Group 1" transform="matrix(1,0,0,1,980.437,349.135)"><g id="Group 1"><path fill="#ffffff" fill-opacity="1" d="M-19.44,15.417C-11.99,-33.425,35.302,-16.56,13.949,13.21" /></g></g></g><g id="Group 1" transform="matrix(1,0,0,1,0,0)"><g id="Group 1" transform="matrix(1,0,0,1,980.453,348.918)"><g id="Group 1"><path fill="#000072" fill-opacity="1" d="M-18.95,15.71C-18.95,15.71,-19.962,15.556,-19.962,15.556C-17.377,-1.395,-9.354,-12.931,1.497,-15.304C7.967,-16.716,14.285,-14.378,17.6,-9.341C21.642,-3.198,20.457,5.209,14.349,13.725C14.349,13.725,13.517,13.128,13.517,13.128C19.364,4.976,20.541,-3.008,16.744,-8.778C13.665,-13.457,7.767,-15.626,1.716,-14.304C-8.704,-12.025,-16.431,-0.805,-18.95,15.71Z" /></g></g></g></g><g transform="matrix(1,0,0,1,0,0)" id="Layer 36"><g id="Group 2" transform="matrix(1,0,0,1,0,0)"><g id="Group 1" transform="matrix(1,0,0,1,1011.821,359.669)"><g id="Group 1"><path fill="#ffffff" fill-opacity="1" d="M-13.348,-4.795C9.331,-25.952,28.835,5.165,-4.466,12.057" /></g></g></g><g id="Group 1" transform="matrix(1,0,0,1,0,0)"><g id="Group 1" transform="matrix(1,0,0,1,1011.902,359.646)"><g id="Group 1"><path fill="#000072" fill-opacity="1" d="M-4.443,12.581C-4.443,12.581,-4.651,11.579,-4.651,11.579C5.387,9.502,11.863,4.759,12.674,-1.108C13.184,-4.8,11.222,-8.375,7.675,-10.216C1.832,-13.248,-5.924,-11.072,-13.08,-4.398C-13.08,-4.398,-13.778,-5.147,-13.778,-5.147C-6.292,-12.13,1.905,-14.362,8.147,-11.125C12.084,-9.082,14.259,-5.095,13.688,-0.968C12.815,5.347,6.037,10.412,-4.443,12.581Z" /></g></g></g></g><g transform="matrix(1,0,0,1,0,0)" id="Layer 37"><g id="Group 2" transform="matrix(1,0,0,1,0,0)"><g id="Group 1" transform="matrix(1,0,0,1,1019.339,379.263)"><g id="Group 1"><path fill="#ffffff" fill-opacity="1" d="M-2.782,-10.622C22.785,-2.294,5.83,22.265,-10.328,4.053" /></g></g></g><g id="Group 1" transform="matrix(1,0,0,1,0,0)"><g id="Group 1" transform="matrix(1,0,0,1,1019.404,379.28)"><g id="Group 1"><path fill="#000072" fill-opacity="1" d="M1.582,11.125C-2.473,11.125,-6.879,8.766,-10.775,4.376C-10.775,4.376,-10.009,3.696,-10.009,3.696C-5.206,9.11,0.344,11.275,4.845,9.485C7.928,8.257,9.853,5.339,9.748,2.048C9.585,-3.043,4.817,-7.604,-3.005,-10.152C-3.005,-10.152,-2.687,-11.125,-2.687,-11.125C5.562,-8.437,10.593,-3.526,10.77,2.015C10.889,5.742,8.712,9.047,5.223,10.436C4.06,10.899,2.839,11.125,1.582,11.125Z" /></g></g></g></g><g transform="matrix(1,0,0,1,0,0)" id="Layer 38"><g id="Group 1" transform="matrix(1,0,0,1,980.427,349.135)"><g id="Group 1"><path fill="#000072" fill-opacity="1" d="M-19.424,19.215C-19.615,19.215,-19.808,19.2,-20.002,19.171C-22.075,18.855,-23.5,16.918,-23.184,14.844C-20.385,-3.505,-11.411,-16.056,0.822,-18.731C8.631,-20.439,16.304,-17.546,20.372,-11.364C25.131,-4.129,23.889,5.884,17.046,15.423C15.823,17.127,13.448,17.518,11.747,16.296C10.043,15.073,9.651,12.7,10.874,10.996C15.884,4.01,17.033,-2.618,14.026,-7.189C11.702,-10.723,7.156,-12.341,2.444,-11.311C-6.595,-9.334,-13.369,0.872,-15.675,15.99C-15.962,17.869,-17.58,19.215,-19.424,19.215Z" /></g></g></g><g transform="matrix(1,0,0,1,0,0)" id="Layer 39"><g id="Group 1" transform="matrix(1,0,0,1,1011.822,359.648)"><g id="Group 1"><path fill="#000072" fill-opacity="1" d="M-4.47,15.877C-6.233,15.877,-7.814,14.642,-8.185,12.848C-8.611,10.794,-7.29,8.784,-5.236,8.359C4.907,6.26,9.027,1.858,9.499,-1.56C9.822,-3.892,8.573,-6.092,6.242,-7.302C2.727,-9.126,-3.584,-8.689,-10.757,-1.997C-12.292,-0.566,-14.695,-0.651,-16.125,-2.184C-17.556,-3.717,-17.472,-6.12,-15.939,-7.551C-7.391,-15.526,2.207,-17.953,9.741,-14.044C14.928,-11.351,17.787,-6.043,17.024,-0.52C16.509,3.203,13.46,12.246,-3.697,15.797C-3.957,15.85,-4.215,15.877,-4.47,15.877Z" /></g></g></g><g transform="matrix(1,0,0,1,0,0)" id="Layer 40"><g id="Group 1" transform="matrix(1,0,0,1,1019.339,379.27)"><g id="Group 1"><path fill="#000072" fill-opacity="1" d="M1.637,14.427C-3.354,14.428,-8.625,11.689,-13.169,6.567C-14.562,4.998,-14.417,2.598,-12.848,1.206C-11.281,-0.185,-8.881,-0.043,-7.487,1.526C-3.64,5.861,0.539,7.699,3.694,6.442C5.475,5.733,6.587,4.053,6.527,2.163C6.437,-0.653,3.635,-4.543,-3.958,-7.017C-5.952,-7.667,-7.042,-9.81,-6.392,-11.804C-5.743,-13.799,-3.6,-14.89,-1.605,-14.24C8.018,-11.105,13.896,-5.064,14.12,1.92C14.284,7.047,11.293,11.592,6.503,13.499C4.938,14.122,3.302,14.427,1.637,14.427Z" /></g></g></g></g></defs><g transform="matrix(1,0,0,1,0,0)" opacity="0.2" id="Layer 5"><g id="Group 1" transform="matrix(1,0,0,1,1000.415,826.573)"><g id="Group 1"><path fill="#000072" fill-opacity="1" d="M228.588,0C228.588,19.313,126.246,34.969,0,34.969C-126.246,34.969,-228.588,19.313,-228.588,0C-228.588,-19.313,-126.246,-34.969,0,-34.969C126.246,-34.969,228.588,-19.313,228.588,0Z" /></g></g></g><g transform="matrix(1,0,0,1,0,0)" id="Layer 1"><g id="Group 1" transform="matrix(1,0,0,1,1118.639,723.135)"><g id="Group 1"><path fill="#000072" fill-opacity="1" d="M-20.601,103.541C-20.116,103.487,-19.634,103.34,-19.18,103.092C1.235,91.959,14.734,75.362,20.94,53.763C27.099,32.329,26.059,6.157,17.847,-24.027C11.231,-48.35,-0.114,-75.171,-14.959,-101.591C-16.003,-103.452,-18.358,-104.115,-20.219,-103.067C-22.079,-102.022,-22.74,-99.666,-21.695,-97.806C-6.148,-70.138,28.403,-0.192,13.514,51.628C7.899,71.168,-4.345,86.201,-22.879,96.308C-24.753,97.33,-25.442,99.677,-24.421,101.55C-23.647,102.969,-22.113,103.71,-20.601,103.541Z" /></g></g></g><g transform="matrix(1,0,0,1,0,0)" opacity="0.3" id="Layer 10"><g id="Group 1" transform="matrix(1,0,0,1,971.617,526.15)"><g id="Group 1"><path fill="#000072" fill-opacity="1" d="M11.499,109.221C21.024,109.221,30.341,108.791,39.405,107.945C84.091,102.168,121.464,85.105,142.691,53.324C142.691,53.324,142.689,53.325,142.689,53.325C140.985,54.341,139.245,55.32,137.478,56.268C137.372,56.325,137.266,56.382,137.159,56.439C131.804,59.291,126.166,61.833,120.276,64.074C120.148,64.123,120.021,64.172,119.893,64.22C117.978,64.943,116.038,65.636,114.071,66.297C113.968,66.332,113.863,66.365,113.759,66.4C109.78,67.728,105.699,68.93,101.524,70.008C101.366,70.049,101.209,70.091,101.051,70.131C99.035,70.646,96.996,71.133,94.937,71.592C94.712,71.642,94.486,71.691,94.261,71.74C92.169,72.199,90.061,72.634,87.928,73.035C87.911,73.038,87.893,73.042,87.875,73.045C85.737,73.447,83.576,73.816,81.398,74.161C81.22,74.189,81.044,74.22,80.866,74.248C78.773,74.575,76.659,74.872,74.532,75.147C74.201,75.19,73.868,75.232,73.536,75.274C71.424,75.539,69.299,75.782,67.156,75.997C66.913,76.021,66.668,76.042,66.424,76.066C64.307,76.272,62.176,76.458,60.031,76.617C59.876,76.628,59.721,76.642,59.566,76.653C57.398,76.81,55.213,76.938,53.017,77.047C52.617,77.067,52.217,77.087,51.816,77.105C49.672,77.203,47.517,77.281,45.349,77.334C44.97,77.343,44.588,77.349,44.208,77.357C41.947,77.404,39.678,77.435,37.394,77.435C35.729,77.435,34.071,77.418,32.418,77.393C31.938,77.386,31.459,77.375,30.98,77.366C29.736,77.341,28.496,77.31,27.259,77.271C26.8,77.257,26.339,77.243,25.881,77.227C24.245,77.168,22.613,77.099,20.991,77.014C20.85,77.007,20.709,76.997,20.568,76.989C19.082,76.909,17.603,76.816,16.129,76.714C15.663,76.682,15.199,76.647,14.734,76.613C13.493,76.521,12.258,76.421,11.026,76.313C10.626,76.278,10.224,76.245,9.825,76.208C8.226,76.061,6.633,75.902,5.051,75.728C4.85,75.706,4.651,75.681,4.45,75.658C3.066,75.502,1.689,75.335,0.318,75.158C-0.112,75.103,-0.541,75.045,-0.97,74.987C-2.231,74.817,-3.485,74.639,-4.734,74.451C-5.051,74.403,-5.371,74.359,-5.687,74.31C-7.248,74.069,-8.8,73.814,-10.342,73.544C-10.557,73.506,-10.771,73.465,-10.986,73.427C-12.309,73.191,-13.625,72.943,-14.933,72.686C-15.311,72.612,-15.688,72.536,-16.065,72.46C-17.367,72.197,-18.66,71.923,-19.946,71.638C-20.156,71.591,-20.368,71.547,-20.578,71.5C-22.096,71.158,-23.603,70.802,-25.098,70.429C-25.312,70.376,-25.523,70.319,-25.736,70.265C-27.008,69.944,-28.269,69.611,-29.523,69.267C-29.846,69.178,-30.17,69.089,-30.492,68.999C-31.844,68.62,-33.188,68.23,-34.519,67.824C-34.605,67.798,-34.691,67.773,-34.777,67.747C-36.243,67.298,-37.695,66.83,-39.135,66.348C-39.334,66.282,-39.531,66.212,-39.729,66.145C-40.953,65.73,-42.167,65.302,-43.371,64.863C-43.637,64.766,-43.903,64.669,-44.168,64.571C-46.956,63.537,-49.69,62.438,-52.365,61.271C-52.546,61.192,-52.725,61.11,-52.906,61.031C-54.08,60.513,-55.241,59.983,-56.392,59.439C-56.599,59.341,-56.807,59.244,-57.013,59.145C-59.639,57.888,-62.203,56.563,-64.702,55.166C-64.865,55.075,-65.027,54.982,-65.189,54.89C-66.303,54.261,-67.404,53.619,-68.491,52.962C-68.644,52.869,-68.799,52.778,-68.951,52.685C-71.391,51.197,-73.762,49.634,-76.063,48C-76.208,47.897,-76.352,47.793,-76.496,47.69C-77.542,46.94,-78.572,46.175,-79.587,45.394C-79.69,45.315,-79.795,45.237,-79.897,45.158C-82.128,43.431,-84.282,41.627,-86.36,39.748C-86.491,39.63,-86.62,39.51,-86.75,39.391C-87.713,38.511,-88.662,37.617,-89.591,36.704C-89.65,36.646,-89.71,36.589,-89.769,36.531C-91.766,34.558,-93.681,32.505,-95.514,30.375C-95.631,30.238,-95.748,30.101,-95.865,29.964C-96.733,28.944,-97.585,27.909,-98.415,26.853C-98.437,26.825,-98.46,26.796,-98.482,26.768C-99.379,25.623,-100.255,24.457,-101.106,23.269C-101.106,23.269,-101.106,23.269,-101.106,23.269C-101.106,23.269,-101.107,23.268,-101.107,23.268C-101.88,22.189,-102.628,21.09,-103.362,19.976C-103.472,19.809,-103.581,19.641,-103.69,19.474C-104.369,18.429,-105.031,17.37,-105.675,16.294C-105.733,16.198,-105.794,16.103,-105.851,16.006C-107.26,13.635,-108.582,11.186,-109.819,8.662C-109.919,8.457,-110.017,8.25,-110.116,8.044C-110.631,6.976,-111.13,5.894,-111.613,4.798C-111.708,4.583,-111.804,4.369,-111.898,4.152C-113.013,1.578,-114.041,-1.071,-114.979,-3.798C-115.065,-4.048,-115.147,-4.302,-115.231,-4.553C-115.603,-5.659,-115.959,-6.778,-116.301,-7.909C-116.4,-8.236,-116.5,-8.563,-116.596,-8.893C-116.957,-10.126,-117.301,-11.372,-117.627,-12.635C-117.666,-12.789,-117.71,-12.939,-117.749,-13.093C-118.113,-14.528,-118.453,-15.983,-118.771,-17.457C-118.832,-17.736,-118.885,-18.021,-118.944,-18.302C-119.188,-19.475,-119.419,-20.66,-119.634,-21.857C-119.711,-22.284,-119.786,-22.712,-119.858,-23.142C-120.054,-24.299,-120.236,-25.467,-120.404,-26.646C-120.455,-27.006,-120.512,-27.363,-120.561,-27.725C-120.767,-29.252,-120.952,-30.795,-121.112,-32.36C-121.137,-32.606,-121.155,-32.858,-121.179,-33.104C-121.306,-34.419,-121.417,-35.747,-121.511,-37.088C-121.546,-37.586,-121.576,-38.089,-121.606,-38.591C-121.676,-39.753,-121.734,-40.925,-121.779,-42.107C-121.798,-42.598,-121.82,-43.086,-121.834,-43.58C-121.882,-45.219,-121.914,-46.872,-121.914,-48.549C-121.914,-56.225,-121.396,-63.775,-120.411,-71.171C-120.353,-71.609,-120.298,-72.05,-120.237,-72.487C-119.353,-78.752,-118.129,-84.901,-116.584,-90.917C-116.565,-90.992,-116.547,-91.068,-116.528,-91.143C-115.8,-93.963,-114.994,-96.749,-114.127,-99.507C-113.095,-102.79,-111.975,-106.031,-110.754,-109.221C-110.757,-109.218,-110.759,-109.215,-110.761,-109.212C-111.954,-107.571,-113.116,-105.906,-114.25,-104.218C-114.273,-104.183,-114.298,-104.148,-114.321,-104.113C-115.459,-102.416,-116.567,-100.696,-117.645,-98.953C-117.655,-98.937,-117.666,-98.921,-117.676,-98.904C-119.852,-95.381,-121.904,-91.766,-123.823,-88.067C-123.824,-88.066,-123.823,-88.065,-123.824,-88.064C-124.574,-86.619,-125.303,-85.162,-126.012,-83.692C-126.018,-83.679,-126.024,-83.666,-126.031,-83.653C-127.438,-80.734,-128.762,-77.765,-130.004,-74.751C-130.03,-74.688,-130.056,-74.624,-130.082,-74.561C-130.691,-73.078,-131.281,-71.583,-131.848,-70.078C-131.848,-70.078,-131.848,-70.077,-131.848,-70.077C-132.414,-68.577,-132.958,-67.064,-133.482,-65.543C-133.524,-65.421,-133.564,-65.3,-133.606,-65.178C-134.112,-63.699,-134.6,-62.212,-135.066,-60.714C-135.073,-60.691,-135.08,-60.669,-135.087,-60.646C-135.556,-59.136,-136.002,-57.616,-136.429,-56.088C-136.481,-55.902,-136.532,-55.715,-136.583,-55.528C-136.988,-54.062,-137.376,-52.588,-137.742,-51.105C-137.753,-51.058,-137.766,-51.011,-137.778,-50.964C-138.15,-49.45,-138.499,-47.926,-138.83,-46.396C-138.884,-46.146,-138.937,-45.896,-138.99,-45.646C-139.298,-44.189,-139.592,-42.727,-139.863,-41.256C-139.876,-41.188,-139.889,-41.122,-139.902,-41.054C-140.179,-39.537,-140.433,-38.011,-140.67,-36.48C-140.717,-36.174,-140.763,-35.867,-140.809,-35.56C-141.026,-34.102,-141.23,-32.639,-141.41,-31.169C-141.42,-31.093,-141.431,-31.016,-141.44,-30.94C-141.625,-29.417,-141.784,-27.886,-141.928,-26.35C-141.961,-26,-141.992,-25.65,-142.023,-25.299C-142.153,-23.812,-142.271,-22.32,-142.363,-20.821C-142.366,-20.764,-142.372,-20.707,-142.375,-20.65C-142.468,-19.112,-142.534,-17.566,-142.586,-16.017C-142.599,-15.639,-142.61,-15.261,-142.62,-14.883C-142.662,-13.327,-142.691,-11.767,-142.691,-10.201C-142.691,-8.524,-142.659,-6.872,-142.611,-5.233C-142.597,-4.74,-142.575,-4.251,-142.556,-3.761C-142.511,-2.578,-142.453,-1.405,-142.383,-0.242C-142.353,0.259,-142.323,0.76,-142.288,1.257C-142.194,2.596,-142.083,3.922,-141.956,5.235C-141.932,5.484,-141.913,5.739,-141.888,5.987C-141.729,7.55,-141.544,9.092,-141.338,10.618C-141.289,10.982,-141.232,11.34,-141.18,11.702C-141.012,12.879,-140.831,14.046,-140.635,15.201C-140.562,15.632,-140.487,16.06,-140.41,16.488C-140.195,17.683,-139.966,18.866,-139.722,20.036C-139.663,20.319,-139.609,20.605,-139.548,20.887C-139.231,22.359,-138.891,23.814,-138.527,25.248C-138.488,25.404,-138.443,25.557,-138.403,25.713C-138.078,26.973,-137.734,28.217,-137.374,29.447C-137.277,29.778,-137.177,30.107,-137.078,30.436C-136.736,31.564,-136.38,32.681,-136.009,33.784C-135.924,34.037,-135.842,34.292,-135.756,34.544C-134.818,37.269,-133.791,39.919,-132.676,42.492C-132.582,42.709,-132.485,42.922,-132.39,43.138C-131.907,44.233,-131.408,45.315,-130.894,46.383C-130.795,46.589,-130.697,46.797,-130.596,47.002C-129.359,49.526,-128.038,51.975,-126.628,54.346C-126.572,54.441,-126.513,54.535,-126.456,54.63C-125.811,55.708,-125.147,56.768,-124.467,57.814C-124.359,57.98,-124.25,58.147,-124.142,58.312C-123.408,59.427,-122.658,60.527,-121.885,61.606C-121.885,61.606,-121.885,61.607,-121.885,61.607C-93.437,95.144,-44.326,109.221,11.499,109.221Z" /></g></g></g><g transform="matrix(1,0,0,1,0,0)" id="Layer 11"><g id="Group 1" transform="matrix(1,0,0,1,0,0)"><g id="Group 1" transform="matrix(1,0,0,1,994.362,725.179)"><g id="Group 1"><path fill="#ffffff" fill-opacity="1" d="M38.424,107.969C38.424,107.969,-43.089,104.106,-43.089,104.106C-140.773,100.508,-150.685,27.492,-133.996,-43.381C-129.161,-63.944,-122.086,-84.331,-114.26,-102.775C-114.26,-102.775,-7.724,-50.994,99.49,-107.969C190.879,61.574,101.266,105.831,101.266,105.831C101.266,105.831,38.424,107.969,38.424,107.969Z" /></g></g></g></g><g transform="matrix(1,0,0,1,0,0)" opacity="0.3" id="Layer 12"><g id="Group 1" transform="matrix(1,0,0,1,981.074,775.943)"><g id="Group 1"><path fill="#000072" fill-opacity="1" d="M127.284,-13.431C127.284,-13.431,108.68,52.488,108.68,52.488C29.44,49.574,-136.295,83.897,-126.9,-54.266C-115.859,0.384,67.084,4.307,127.284,-13.431Z" /></g></g></g><g transform="matrix(1,0,0,1,0,0)" id="Layer 13"><g id="Group 1" transform="matrix(1,0,0,1,987.458,662.292)"><g id="Group 1"><path fill="#60547b" fill-opacity="1" d="M-6.504,46.02C-81.87,50.424,-127.091,19.507,-127.091,19.507C-122.256,-1.056,-115.182,-21.443,-107.356,-39.887C-107.356,-39.887,-5.004,4.321,105.562,-49.159C191.25,75.972,-6.504,46.02,-6.504,46.02Z" /></g></g></g><g transform="matrix(1,0,0,1,0,0)" id="Layer 14"><g id="Group 1" transform="matrix(1,0,0,1,919.105,786.75)"><g id="Group 1"><path fill="#60547b" fill-opacity="1" d="M27.819,40.547C27.819,40.547,11.284,40.525,11.284,40.525C-15.924,41.353,-25.626,24.389,-27.48,6.077C-28.209,-1.241,-27.701,-8.769,-26.542,-15.458C-23.12,-35.304,-2.811,-51.883,11.284,-30.635C11.284,-30.635,14.552,0.447,14.552,0.447C14.552,0.447,17.212,25.746,17.212,25.746C17.212,25.746,27.819,40.547,27.819,40.547Z" /></g></g></g><g transform="matrix(1,0,0,1,0,0)" opacity="0.55" id="Layer 15"><g id="Group 2" transform="matrix(1,0,0,1,0,0)"><g id="Group 1" transform="matrix(1,0,0,1,942.347,820.91)"><g id="Group 1"><path fill="#ffffff" fill-opacity="1" d="M-3.983,-0.73C-3.983,-0.73,1.115,6.383,1.115,6.383C1.115,6.383,4.577,6.387,4.577,6.387C4.577,6.387,-4.577,-6.387,-4.577,-6.387C-4.577,-6.387,-3.983,-0.73,-3.983,-0.73Z" /></g></g></g><g id="Group 1" transform="matrix(1,0,0,1,0,0)"><g id="Group 1" transform="matrix(1,0,0,1,911.136,775.715)"><g id="Group 1"><path fill="#ffffff" fill-opacity="1" d="M-17.463,24.796C-18.192,17.478,-17.684,9.951,-16.525,3.262C-13.219,-15.913,5.85,-32.03,19.849,-13.935C19.849,-13.935,19.254,-19.6,19.254,-19.6C5.159,-40.848,-15.151,-24.269,-18.572,-4.423C-19.731,2.266,-20.239,9.794,-19.51,17.112C-19.077,21.393,-18.207,25.596,-16.793,29.519C-17.078,27.962,-17.302,26.384,-17.463,24.796Z" /></g></g></g></g><g transform="matrix(1,0,0,1,0,0)" id="Layer 16"><g id="Group 1" transform="matrix(1,0,0,1,1082.003,670.69)"><g id="Group 1"><path fill="#60547b" fill-opacity="1" d="M54.394,24.839C53.478,32.278,50.398,38.868,45.906,44.144C36.403,55.347,20.542,60.657,5.431,55.69C-20.033,47.323,-15.22,13.702,19.913,-3.506C20.752,-3.925,21.612,-4.323,22.484,-4.72C22.484,-4.72,16.259,-3.793,16.259,-3.793C16.259,-3.793,-15.927,-6.331,-15.927,-6.331C-15.927,-6.331,-54.702,-27.745,-54.702,-27.745C-54.702,-27.745,-12.527,-44.213,-12.527,-44.213C-12.527,-44.213,11.016,-57.557,11.016,-57.557C33.235,-38.241,57.738,-2.347,54.394,24.839Z" /></g></g></g><g transform="matrix(1,0,0,1,0,0)" id="Layer 17"><g id="Group 1" transform="matrix(1,0,0,1,1113.183,792.806)"><g id="Group 1"><path fill="#60547b" fill-opacity="1" d="M-14.61,-21.002C13.381,-55.454,36.283,-23.169,17.631,15.282C3.446,41.126,-14.895,37.605,-24.399,30.354" /></g></g></g><g transform="matrix(1,0,0,1,0,0)" opacity="0.3" id="Layer 18"><g id="Group 1" transform="matrix(1,0,0,1,1112.954,798.305)"><g id="Group 1"><path fill="#000072" fill-opacity="1" d="M24.173,-10.578C23.345,-4.264,21.325,2.657,17.859,9.787C3.676,35.626,-14.67,32.105,-24.173,24.853C-24.173,24.853,-14.382,-26.505,-14.382,-26.505C-13.322,-27.807,-12.274,-29.011,-11.236,-30.126C-11.236,-30.126,-17.826,4.433,-17.826,4.433C-8.334,11.685,10.001,15.206,24.173,-10.578Z" /></g></g></g><g transform="matrix(1,0,0,1,0,0)" opacity="0.55" id="Layer 19"><g id="Group 1" transform="matrix(1,0,0,1,1117.484,781.98)"><g id="Group 1"><path fill="#ffffff" fill-opacity="1" d="M13.947,24.799C24.102,-7.773,4.378,-31.294,-20.093,-3.976C-20.093,-3.976,-18.912,-10.18,-18.912,-10.18C8.76,-44.231,31.453,-13.071,13.947,24.799Z" /></g></g></g><g id="Pre-comp 2"><g transform="translate(960,540)"><animateTransform repeatCount="indefinite" type="translate" attributeName="transform" dur="4.3s" begin="0s" calcMode="spline" values="960 540; 960 540; 960 550; 960 540; 960 550; 960 540; 960 550; 960 540; 960 540" keyTimes="0; 0.18217; 0.275194; 0.360465; 0.507752; 0.593023; 0.744186; 0.829457; 1" keySplines="0 0 1 1; 0.333 0 0.667 1; 0.333 0 0.667 1; 0.333 0 0.667 1; 0.333 0 0.667 1; 0.167 0 0.667 1; 0.333 0 0.667 1; 0 0 1 1" fill="freeze" /><g transform="scale(1,1) translate(-960,-540)"><g clip-path="url(#cp-1920-1080)"><g transform="matrix(1,0,0,1,0,0)"><g transform="matrix(1,0,0,1,844.781,411.876)"><g><path fill="#60547b" fill-opacity="1" d="M54.989,-37.928C-15.685,-109.412,-106.195,-0.754,-19.405,61.422" /></g></g></g><g transform="matrix(1,0,0,1,0,0)"><g transform="matrix(1,0,0,1,0,0)"><g transform="matrix(1,0,0,1,797.183,389.905)"><g><path fill="#000072" fill-opacity="1" d="M-0.002,-0.021C-0.002,-0.021,-0.001,-0.004,0.002,0.021C0,-0.002,-0.002,-0.021,-0.002,-0.021Z" /></g></g></g><g transform="matrix(1,0,0,1,0,0)"><g transform="matrix(1,0,0,1,797.208,390.154)"><g><path fill="#000072" fill-opacity="1" d="M-0.003,-0.023C-0.002,-0.009,0.002,0.007,0.003,0.023C0.002,0.008,-0.002,-0.009,-0.003,-0.023Z" /></g></g></g><g transform="matrix(1,0,0,1,0,0)"><g transform="matrix(1,0,0,1,827.229,432.026)"><g><path fill="#000072" fill-opacity="1" d="M29.268,-12.957C29.6,-13.196,29.926,-13.421,30.262,-13.668C-13.473,18.514,-25.885,-19.687,-29.055,-35.711C-33.667,-12.747,-25.523,14.115,3.337,35.711C3.337,35.711,28.65,1.905,28.65,1.905C28.65,1.905,30.253,-13.575,30.253,-13.575C29.925,-13.369,29.592,-13.154,29.268,-12.957Z" /></g></g></g><g transform="matrix(1,0,0,1,0,0)"><g transform="matrix(1,0,0,1,797.191,389.99)"><g><path fill="#000072" fill-opacity="1" d="M-0.003,-0.036C-0.001,-0.016,0,0.007,0.003,0.036C0,0.01,-0.001,-0.018,-0.003,-0.036Z" /></g></g></g></g><g transform="matrix(1,0,0,1,0,0)"><g transform="matrix(1,0,0,1,1095.628,395.917)"><g><path fill="#60547b" fill-opacity="1" d="M-59.044,-32.689C-1.023,-100.626,111.511,-24.191,30.969,58.855" /></g></g></g><g transform="matrix(1,0,0,1,0,0)"><g transform="matrix(1,0,0,1,0,0)"><g transform="matrix(1,0,0,1,1100.08,412.616)"><g><path fill="#000072" fill-opacity="1" d="M10.814,39.82C13.74,39.63,16.779,38.918,16.779,38.918C16.779,38.918,41.6,23.892,46.677,-13.552C46.679,-13.554,46.681,-13.557,46.682,-13.559C36.885,-1.054,12.274,9.759,-46.682,-40.89C-46.682,-40.89,-16.65,4.53,-16.65,4.53C-16.65,4.53,-7.662,27.75,-7.662,27.75C-7.662,27.75,9.056,37.803,10.933,39.942C11.52,40.611,12.811,40.861,14.308,40.89C12.811,40.861,11.52,40.611,10.933,39.942C10.901,39.906,10.854,39.861,10.814,39.82Z" /></g></g></g></g><g transform="matrix(1,0,0,1,0,0)"><g transform="matrix(1,0,0,1,844.779,411.885)"><g><path fill="#000072" fill-opacity="1" d="M-19.405,65.211C-20.171,65.211,-20.944,64.981,-21.615,64.501C-49.002,44.881,-62.266,17.945,-58.006,-9.401C-54.166,-34.047,-36.703,-54.814,-13.516,-62.308C10.445,-70.05,36.4,-62.143,57.692,-40.607C59.167,-39.116,59.152,-36.711,57.661,-35.236C56.17,-33.762,53.763,-33.776,52.29,-35.267C32.806,-54.974,10.268,-62.01,-11.181,-55.079C-31.665,-48.459,-47.099,-30.071,-50.501,-8.232C-52.735,6.113,-51.378,33.834,-17.19,58.326C-15.486,59.548,-15.092,61.92,-16.314,63.625C-17.056,64.66,-18.222,65.211,-19.405,65.211Z" /></g></g></g><g transform="matrix(1,0,0,1,0,0)"><g transform="matrix(1,0,0,1,1095.637,395.895)"><g><path fill="#000072" fill-opacity="1" d="M30.96,62.675C30.007,62.675,29.054,62.318,28.316,61.603C26.811,60.143,26.774,57.737,28.234,56.232C51.043,32.713,59.828,7.47,52.968,-14.848C46.987,-34.307,29.761,-49.194,8.014,-53.7C-15.802,-58.635,-39.196,-50.071,-56.165,-30.201C-57.527,-28.605,-59.926,-28.417,-61.519,-29.78C-63.114,-31.142,-63.304,-33.539,-61.941,-35.134C-43.117,-57.174,-17.057,-66.652,9.556,-61.138C34.018,-56.069,53.433,-39.188,60.228,-17.08C67.939,8.007,58.513,35.922,33.686,61.521C32.941,62.289,31.951,62.675,30.96,62.675Z" /></g></g></g></g></g></g></g><g id="Layer 9"><g transform="translate(992.027,629.542)"><g transform="scale(1,1)"><animateTransform repeatCount="indefinite" type="scale" attributeName="transform" dur="4.3s" begin="0s" calcMode="spline" values="1 1; 1 1; 1 0.95; 1 1; 1 0.95; 1 1; 1 0.95; 1 1; 1 1" keyTimes="0; 0.18217; 0.275194; 0.360465; 0.507752; 0.593023; 0.744186; 0.829457; 1" keySplines="0 0 1 1; 0.333 0 0.667 1; 0.333 0 0.667 1; 0.333 0 0.667 1; 0.333 0 0.667 1; 0.167 0 0.667 1; 0.333 0 0.667 1; 0 0 1 1" fill="freeze" /><g transform="translate(-992.027,-629.542)"><g id="Group 2" transform="matrix(1,0,0,1,0,0)"><g id="Group 1" transform="matrix(1,0,0,1,979.027,497.542)"><g id="Group 1"><path d="M159.313,19.425C159.313,110.459,87.986,145.407,0,145.407C-87.986,145.407,-159.313,110.459,-159.313,19.425C-159.313,-71.609,-87.986,-145.407,0,-145.407C87.986,-145.407,159.313,-71.609,159.313,19.425Z" fill="#ffffff" fill-opacity="1"><animate repeatCount="indefinite" attributeName="d" dur="4.3s" begin="0s" calcMode="spline" values="M159.313,19.425C159.313,110.459,87.986,145.407,0,145.407C-87.986,145.407,-159.313,110.459,-159.313,19.425C-159.313,-71.609,-87.986,-145.407,0,-145.407C87.986,-145.407,159.313,-71.609,159.313,19.425Z; M159.313,19.425C159.313,110.459,87.986,145.407,0,145.407C-87.986,145.407,-159.313,110.459,-159.313,19.425C-159.313,-71.609,-87.986,-145.407,0,-145.407C87.986,-145.407,159.313,-71.609,159.313,19.425Z; M176.813,24.161C176.813,115.195,87.986,145.407,0,145.407C-87.986,145.407,-159.313,110.459,-159.313,19.425C-159.313,-71.609,-87.986,-145.407,0,-145.407C87.986,-145.407,176.813,-66.873,176.813,24.161Z; M159.313,19.425C159.313,110.459,87.986,145.407,0,145.407C-87.986,145.407,-159.313,110.459,-159.313,19.425C-159.313,-71.609,-87.986,-145.407,0,-145.407C87.986,-145.407,159.313,-71.609,159.313,19.425Z; M176.813,24.161C176.813,115.195,87.986,145.407,0,145.407C-87.986,145.407,-159.313,110.459,-159.313,19.425C-159.313,-71.609,-87.986,-145.407,0,-145.407C87.986,-145.407,176.813,-66.873,176.813,24.161Z; M159.313,19.425C159.313,110.459,87.986,145.407,0,145.407C-87.986,145.407,-159.313,110.459,-159.313,19.425C-159.313,-71.609,-87.986,-145.407,0,-145.407C87.986,-145.407,159.313,-71.609,159.313,19.425Z; M176.813,24.161C176.813,115.195,87.986,145.407,0,145.407C-87.986,145.407,-159.313,110.459,-159.313,19.425C-159.313,-71.609,-87.986,-145.407,0,-145.407C87.986,-145.407,176.813,-66.873,176.813,24.161Z; M159.313,19.425C159.313,110.459,87.986,145.407,0,145.407C-87.986,145.407,-159.313,110.459,-159.313,19.425C-159.313,-71.609,-87.986,-145.407,0,-145.407C87.986,-145.407,159.313,-71.609,159.313,19.425Z; M159.313,19.425C159.313,110.459,87.986,145.407,0,145.407C-87.986,145.407,-159.313,110.459,-159.313,19.425C-159.313,-71.609,-87.986,-145.407,0,-145.407C87.986,-145.407,159.313,-71.609,159.313,19.425Z" keyTimes="0; 0.182171; 0.275194; 0.360465; 0.507752; 0.593024; 0.744186; 0.829457; 1" keySplines="0 0 1 1; 0.333 0 0.667 1; 0.333 0 0.667 1; 0.333 0 0.667 1; 0.333 0 0.667 1; 0.167 0 0.667 1; 0.333 0 0.667 1; 0 0 1 1" fill="freeze" /></path></g></g></g></g></g></g></g><g id="Layer 20"><g transform="translate(983.027,637.542)"><g transform="scale(1,1)"><animateTransform repeatCount="indefinite" type="scale" attributeName="transform" dur="4.3s" begin="0s" calcMode="spline" values="1 1; 1 1; 1 0.95; 1 1; 1 0.95; 1 1; 1 0.95; 1 1; 1 1" keyTimes="0; 0.18217; 0.275194; 0.360465; 0.507752; 0.593023; 0.744186; 0.829457; 1" keySplines="0 0 1 1; 0.333 0 0.667 1; 0.333 0 0.667 1; 0.333 0 0.667 1; 0.333 0 0.667 1; 0.167 0 0.667 1; 0.333 0 0.667 1; 0 0 1 1" fill="freeze" /><g transform="translate(-983.027,-637.542)"><g id="Group 1" transform="matrix(1,0,0,1,979.027,497.542)"><g id="Group 1"><path d="M0,149.205C-47.426,149.205,-87.132,138.992,-114.825,119.669C-146.866,97.312,-163.111,63.585,-163.111,19.425C-163.111,-73.558,-89.94,-149.205,0,-149.205C89.94,-149.205,163.611,-71.9,163.611,21.083C163.611,65.243,136.973,107.509,114.825,119.958C86.081,136.115,47.426,149.205,0,149.205Z" fill="#000072" fill-opacity="1"><animate repeatCount="indefinite" attributeName="d" dur="4.3s" begin="0s" calcMode="spline" values="M0,149.205C-47.426,149.205,-87.132,138.992,-114.825,119.669C-146.866,97.312,-163.111,63.585,-163.111,19.425C-163.111,-73.558,-89.94,-149.205,0,-149.205C89.94,-149.205,163.611,-71.9,163.611,21.083C163.611,65.243,136.973,107.509,114.825,119.958C86.081,136.115,47.426,149.205,0,149.205Z; M0,149.205C-47.426,149.205,-87.132,138.992,-114.825,119.669C-146.866,97.312,-163.111,63.585,-163.111,19.425C-163.111,-73.558,-89.94,-149.205,0,-149.205C89.94,-149.205,163.611,-71.9,163.611,21.083C163.611,65.243,136.973,107.509,114.825,119.958C86.081,136.115,47.426,149.205,0,149.205Z; M0,149.205C-47.426,149.205,-87.132,138.992,-114.825,119.669C-146.866,97.312,-163.111,63.585,-163.111,19.425C-163.111,-73.558,-89.94,-149.205,0,-149.205C89.94,-149.205,180.611,-64.4,180.611,28.583C180.611,72.743,137.973,111.009,115.825,123.458C87.081,139.615,47.426,149.205,0,149.205Z; M0,149.205C-47.426,149.205,-87.132,138.992,-114.825,119.669C-146.866,97.312,-163.111,63.585,-163.111,19.425C-163.111,-73.558,-89.94,-149.205,0,-149.205C89.94,-149.205,163.611,-71.9,163.611,21.083C163.611,65.243,136.973,107.509,114.825,119.958C86.081,136.115,47.426,149.205,0,149.205Z; M0,149.205C-47.426,149.205,-87.132,138.992,-114.825,119.669C-146.866,97.312,-163.111,63.585,-163.111,19.425C-163.111,-73.558,-89.94,-149.205,0,-149.205C89.94,-149.205,180.611,-64.4,180.611,28.583C180.611,72.743,137.973,111.009,115.825,123.458C87.081,139.615,47.426,149.205,0,149.205Z; M0,149.205C-47.426,149.205,-87.132,138.992,-114.825,119.669C-146.866,97.312,-163.111,63.585,-163.111,19.425C-163.111,-73.558,-89.94,-149.205,0,-149.205C89.94,-149.205,163.611,-71.9,163.611,21.083C163.611,65.243,136.973,107.509,114.825,119.958C86.081,136.115,47.426,149.205,0,149.205Z; M0,149.205C-47.426,149.205,-87.132,138.992,-114.825,119.669C-146.866,97.312,-163.111,63.585,-163.111,19.425C-163.111,-73.558,-89.94,-149.205,0,-149.205C89.94,-149.205,180.611,-64.4,180.611,28.583C180.611,72.743,137.973,111.009,115.825,123.458C87.081,139.615,47.426,149.205,0,149.205Z; M0,149.205C-47.426,149.205,-87.132,138.992,-114.825,119.669C-146.866,97.312,-163.111,63.585,-163.111,19.425C-163.111,-73.558,-89.94,-149.205,0,-149.205C89.94,-149.205,163.611,-71.9,163.611,21.083C163.611,65.243,136.973,107.509,114.825,119.958C86.081,136.115,47.426,149.205,0,149.205Z; M0,149.205C-47.426,149.205,-87.132,138.992,-114.825,119.669C-146.866,97.312,-163.111,63.585,-163.111,19.425C-163.111,-73.558,-89.94,-149.205,0,-149.205C89.94,-149.205,163.611,-71.9,163.611,21.083C163.611,65.243,136.973,107.509,114.825,119.958C86.081,136.115,47.426,149.205,0,149.205Z" keyTimes="0; 0.182171; 0.275194; 0.360465; 0.507752; 0.593024; 0.744186; 0.829457; 1" keySplines="0 0 1 1; 0.333 0 0.667 1; 0.333 0 0.667 1; 0.333 0 0.667 1; 0.333 0 0.667 1; 0.167 0 0.667 1; 0.333 0 0.667 1; 0 0 1 1" fill="freeze" /></path><path d="M0,-141.609C-85.751,-141.609,-155.516,-69.369,-155.516,19.425C-155.516,60.956,-140.363,92.587,-110.478,113.439C-84.066,131.868,-45.863,141.609,0,141.609C45.864,141.609,84.066,131.868,110.478,113.439C140.363,92.587,155.516,60.956,155.516,19.425C155.516,-69.369,85.751,-141.609,0,-141.609Z" fill="#000072" fill-opacity="1"><animate repeatCount="indefinite" attributeName="d" dur="4.3s" begin="0s" calcMode="spline" values="M0,-141.609C-85.751,-141.609,-155.516,-69.369,-155.516,19.425C-155.516,60.956,-140.363,92.587,-110.478,113.439C-84.066,131.868,-45.863,141.609,0,141.609C45.864,141.609,84.066,131.868,110.478,113.439C140.363,92.587,155.516,60.956,155.516,19.425C155.516,-69.369,85.751,-141.609,0,-141.609Z; M0,-141.609C-85.751,-141.609,-155.516,-69.369,-155.516,19.425C-155.516,60.956,-140.363,92.587,-110.478,113.439C-84.066,131.868,-45.863,141.609,0,141.609C45.864,141.609,84.066,131.868,110.478,113.439C140.363,92.587,155.516,60.956,155.516,19.425C155.516,-69.369,85.751,-141.609,0,-141.609Z; M0,-141.609C-85.751,-141.609,-155.516,-69.369,-155.516,19.425C-155.516,60.956,-140.363,92.587,-110.478,113.439C-84.066,131.868,-45.863,141.609,0,141.609C45.864,141.609,87.066,131.342,113.478,112.913C143.363,92.061,173.016,66.745,173.016,25.214C173.016,-63.58,85.751,-141.609,0,-141.609Z; M0,-141.609C-85.751,-141.609,-155.516,-69.369,-155.516,19.425C-155.516,60.956,-140.363,92.587,-110.478,113.439C-84.066,131.868,-45.863,141.609,0,141.609C45.864,141.609,84.066,131.868,110.478,113.439C140.363,92.587,155.516,60.956,155.516,19.425C155.516,-69.369,85.751,-141.609,0,-141.609Z; M0,-141.609C-85.751,-141.609,-155.516,-69.369,-155.516,19.425C-155.516,60.956,-140.363,92.587,-110.478,113.439C-84.066,131.868,-45.863,141.609,0,141.609C45.864,141.609,87.066,131.342,113.478,112.913C143.363,92.061,173.016,66.745,173.016,25.214C173.016,-63.58,85.751,-141.609,0,-141.609Z; M0,-141.609C-85.751,-141.609,-155.516,-69.369,-155.516,19.425C-155.516,60.956,-140.363,92.587,-110.478,113.439C-84.066,131.868,-45.863,141.609,0,141.609C45.864,141.609,84.066,131.868,110.478,113.439C140.363,92.587,155.516,60.956,155.516,19.425C155.516,-69.369,85.751,-141.609,0,-141.609Z; M0,-141.609C-85.751,-141.609,-155.516,-69.369,-155.516,19.425C-155.516,60.956,-140.363,92.587,-110.478,113.439C-84.066,131.868,-45.863,141.609,0,141.609C45.864,141.609,87.066,131.342,113.478,112.913C143.363,92.061,173.016,66.745,173.016,25.214C173.016,-63.58,85.751,-141.609,0,-141.609Z; M0,-141.609C-85.751,-141.609,-155.516,-69.369,-155.516,19.425C-155.516,60.956,-140.363,92.587,-110.478,113.439C-84.066,131.868,-45.863,141.609,0,141.609C45.864,141.609,84.066,131.868,110.478,113.439C140.363,92.587,155.516,60.956,155.516,19.425C155.516,-69.369,85.751,-141.609,0,-141.609Z; M0,-141.609C-85.751,-141.609,-155.516,-69.369,-155.516,19.425C-155.516,60.956,-140.363,92.587,-110.478,113.439C-84.066,131.868,-45.863,141.609,0,141.609C45.864,141.609,84.066,131.868,110.478,113.439C140.363,92.587,155.516,60.956,155.516,19.425C155.516,-69.369,85.751,-141.609,0,-141.609Z" keyTimes="0; 0.182171; 0.275194; 0.360465; 0.507752; 0.593024; 0.744186; 0.829457; 1" keySplines="0 0 1 1; 0.333 0 0.667 1; 0.333 0 0.667 1; 0.333 0 0.667 1; 0.333 0 0.667 1; 0.167 0 0.667 1; 0.333 0 0.667 1; 0 0 1 1" fill="freeze" /></path></g></g></g></g></g></g><g transform="matrix(1,0,0,1,0,0)" id="Layer 22"><g id="Group 1" transform="matrix(1,0,0,1,855.425,790.767)"><g id="Group 1"><path fill="#60547b" fill-opacity="1" d="M27.582,16.546C-41.781,32.127,-42.334,-41.826,6.956,-11.234" /></g></g></g><g transform="matrix(1,0,0,1,0,0)" opacity="0.55" id="Layer 23"><g id="Group 1" transform="matrix(1,0,0,1,855.429,789.901)"><g id="Group 1"><path fill="#ffffff" fill-opacity="1" d="M9,-4.226C9,-4.226,25.401,17.864,25.401,17.864C26.123,17.718,26.841,17.578,27.578,17.412C27.578,17.412,6.952,-10.368,6.952,-10.368C-20.993,-27.712,-32.907,-11.453,-25.353,3.043C-27.178,-9.23,-15.001,-19.122,9,-4.226Z" /></g></g></g><g transform="matrix(1,0,0,1,0,0)" id="Layer 24"><g id="Group 1" transform="matrix(1,0,0,1,1099.642,697.716)"><g id="Group 1"><path fill="#60547b" fill-opacity="1" d="M28.267,17.118C18.764,28.321,2.903,33.631,-12.208,28.664C-37.672,20.297,-32.86,-13.324,2.273,-30.532C2.273,-30.532,28.267,17.118,28.267,17.118Z" /></g></g></g><g transform="matrix(1,0,0,1,0,0)" opacity="0.55" id="Layer 25"><g id="Group 1" transform="matrix(1,0,0,1,1115.247,671.82)"><g id="Group 1"><path fill="#ffffff" fill-opacity="1" d="M21.15,23.709C20.234,31.148,17.154,37.738,12.662,43.014C7.121,49.548,-0.583,54.073,-9.038,55.729C-4.237,53.433,0.068,50.133,3.534,46.049C8.026,40.773,11.106,34.183,12.022,26.744C14.753,4.489,-1.161,-23.585,-19.21,-43.638C-22.319,-47.093,-22.176,-52.383,-18.95,-55.729C-18.95,-55.729,-18.95,-55.729,-18.95,-55.729C2.331,-35.872,24.329,-2.141,21.15,23.709Z" /></g></g></g><g transform="matrix(1,0,0,1,0,0)" id="Layer 26"><g id="Group 1" transform="matrix(1,0,0,1,1104.044,670.69)"><g id="Group 1"><path fill="#000072" fill-opacity="1" d="M-4.981,61.419C-9.295,61.419,-13.624,60.739,-17.822,59.36C-29.119,55.647,-35.925,47.239,-36.495,36.291C-37.38,19.264,-23.501,1.784,-1.137,-8.241C0.807,-9.115,3.095,-8.243,3.968,-6.296C4.841,-4.349,3.97,-2.064,2.024,-1.191C-20.07,8.714,-29.368,24.569,-28.779,35.89C-28.378,43.589,-23.63,49.317,-15.409,52.019C-5.845,55.163,4.579,53.831,13.191,48.368C21.715,42.961,27.3,34.212,28.516,24.363C31.585,-0.521,9.13,-34.914,-13.558,-54.64C-15.167,-56.04,-15.339,-58.48,-13.938,-60.09C-12.539,-61.701,-10.099,-61.871,-8.488,-60.471C11.571,-43.03,40.022,-5.793,36.184,25.309C34.686,37.46,27.812,48.243,17.329,54.892C10.527,59.206,2.799,61.419,-4.981,61.419Z" /></g></g></g><g transform="matrix(1,0,0,1,0,0)" id="Layer 29"><g id="Group 1" transform="matrix(1,0,0,1,879.329,721.34)"><g id="Group 1"><path fill="#000072" fill-opacity="1" d="M25.541,102.801C25.053,102.801,24.558,102.709,24.079,102.513C2.556,93.709,-12.697,78.709,-21.257,57.93C-29.752,37.31,-31.616,11.185,-26.798,-19.723C-22.916,-44.629,-14.612,-72.542,-2.784,-100.444C-1.952,-102.409,0.315,-103.329,2.28,-102.493C4.244,-101.66,5.162,-99.392,4.329,-97.428C-8.058,-68.209,-34.651,5.135,-14.114,54.987C-6.37,73.785,7.465,87.369,27.004,95.361C28.979,96.169,29.926,98.425,29.118,100.4C28.506,101.896,27.062,102.801,25.541,102.801Z" /></g></g></g><g transform="matrix(1,0,0,1,-0.001,0)" id="Layer 30"><g id="Group 1" transform="matrix(1,0,0,1,1012.992,828.28)"><g id="Group 1"><path fill="#000072" fill-opacity="1" d="M63.133,4.868C62.837,4.868,62.546,4.867,62.25,4.866C17.162,4.59,-26.271,3.898,-66.846,2.809C-79.577,2.468,-88.224,0.484,-86.163,-1.622C-84.097,-3.729,-72.072,-5.16,-59.377,-4.817C-20.694,-3.78,20.812,-3.12,63.979,-2.856C76.867,-2.777,86.927,-0.984,86.45,1.148C85.985,3.231,75.629,4.868,63.133,4.868Z" /></g></g></g><g transform="matrix(1,0,0,1,0,0)" id="Layer 31"><g id="Group 1" transform="matrix(1,0,0,1,916.07,786.754)"><g id="Group 1"><path fill="#000072" fill-opacity="1" d="M12.424,44.413C-0.874,44.413,-11.202,40.278,-18.301,32.104C-31.352,17.078,-28.952,-6.625,-27.314,-16.118C-24.914,-30.029,-15.386,-41.764,-4.66,-44.021C0.171,-45.038,9.477,-44.928,17.539,-32.774C18.719,-30.996,18.234,-28.599,16.456,-27.419C14.677,-26.24,12.28,-26.726,11.101,-28.503C8.196,-32.882,3.382,-37.815,-3.069,-36.461C-10.572,-34.882,-17.878,-25.369,-19.701,-14.804C-21.151,-6.397,-23.349,14.51,-12.468,27.038C-6.611,33.782,2.356,37.021,14.203,36.659C14.256,36.658,14.309,36.657,14.362,36.657C18.849,36.72,20.512,34.916,21.414,33.352C22.481,31.505,24.843,30.87,26.69,31.935C28.538,33.001,29.174,35.364,28.108,37.212C26.201,40.52,22.23,44.466,14.36,44.384C13.709,44.403,13.062,44.413,12.424,44.413Z" /></g></g></g><g transform="matrix(1,0,0,1,0,0)" id="Layer 32"><g id="Group 1" transform="matrix(1,0,0,1,1113.214,792.793)"><g id="Group 1"><path fill="#000072" fill-opacity="1" d="M-9.348,39.497C-15.449,39.497,-21.582,37.399,-26.774,33.438C-28.47,32.144,-28.796,29.72,-27.502,28.024C-26.208,26.328,-23.784,26,-22.087,27.295C-19.748,29.08,-13.452,33.047,-5.541,31.375C1.876,29.805,8.507,23.798,14.166,13.521C24.031,-6.88,21.35,-25.095,13.197,-30.286C6.88,-34.308,-2.407,-29.922,-11.644,-18.554C-12.99,-16.898,-15.423,-16.649,-17.078,-17.992C-18.733,-19.338,-18.986,-21.77,-17.64,-23.426C-5.685,-38.14,7.393,-43.141,17.346,-36.804C28.39,-29.772,33.452,-8.532,21.076,16.98C21.048,17.038,21.018,17.096,20.987,17.153C14.185,29.544,5.798,36.873,-3.942,38.934C-5.723,39.311,-7.535,39.497,-9.348,39.497Z" /></g></g></g><g transform="matrix(1,0,0,1,0,0)" id="Layer 34"><g id="Group 1" transform="matrix(1,0,0,1,855.437,790.769)"><g id="Group 1"><path fill="#000072" fill-opacity="1" d="M9.118,22.613C-11.215,22.613,-23.568,13.866,-28.732,4.085C-33.016,-4.03,-32.144,-12.979,-26.563,-18.184C-23.002,-21.505,-12.409,-27.795,8.982,-14.519C10.794,-13.394,11.352,-11.012,10.227,-9.199C9.102,-7.386,6.723,-6.827,4.907,-7.954C-8.865,-16.502,-17.66,-15.924,-21.293,-12.534C-24.289,-9.739,-24.533,-4.511,-21.9,0.477C-16.844,10.053,-1.074,19.018,26.724,12.775C28.802,12.311,30.872,13.615,31.34,15.697C31.807,17.779,30.498,19.846,28.417,20.313C21.328,21.905,14.899,22.613,9.118,22.613Z" /></g></g></g><g id="Pre-comp 1"><g transform="translate(994,368)"><animateTransform repeatCount="indefinite" type="translate" attributeName="transform" dur="4.3s" begin="0s" calcMode="spline" values="994 368; 994 368; 994 378; 994 368; 994 378; 994 368; 994 378; 994 368; 994 368" keyTimes="0; 0.18217; 0.275194; 0.360465; 0.507752; 0.593023; 0.744186; 0.829457; 1" keySplines="0 0 1 1; 0.333 0 0.667 1; 0.333 0 0.667 1; 0.333 0 0.667 1; 0.333 0 0.667 1; 0.167 0 0.667 1; 0.333 0 0.667 1; 0 0 1 1" fill="freeze" /><g transform="scale(1,1) translate(-994,-368)"><g clip-path="url(#cp-1920-1080)"><g transform="matrix(1,0,0,1,0,0)"><g transform="matrix(1,0,0,1,0,0)"><g transform="matrix(1,0,0,1,980.437,349.135)"><g><path fill="#ffffff" fill-opacity="1" d="M-19.44,15.417C-11.99,-33.425,35.302,-16.56,13.949,13.21" /></g></g></g><g transform="matrix(1,0,0,1,0,0)"><g transform="matrix(1,0,0,1,980.453,348.918)"><g><path fill="#000072" fill-opacity="1" d="M-18.95,15.71C-18.95,15.71,-19.962,15.556,-19.962,15.556C-17.377,-1.395,-9.354,-12.931,1.497,-15.304C7.967,-16.716,14.285,-14.378,17.6,-9.341C21.642,-3.198,20.457,5.209,14.349,13.725C14.349,13.725,13.517,13.128,13.517,13.128C19.364,4.976,20.541,-3.008,16.744,-8.778C13.665,-13.457,7.767,-15.626,1.716,-14.304C-8.704,-12.025,-16.431,-0.805,-18.95,15.71Z" /></g></g></g></g><g transform="matrix(1,0,0,1,0,0)"><g transform="matrix(1,0,0,1,0,0)"><g transform="matrix(1,0,0,1,1011.821,359.669)"><g><path fill="#ffffff" fill-opacity="1" d="M-13.348,-4.795C9.331,-25.952,28.835,5.165,-4.466,12.057" /></g></g></g><g transform="matrix(1,0,0,1,0,0)"><g transform="matrix(1,0,0,1,1011.902,359.646)"><g><path fill="#000072" fill-opacity="1" d="M-4.443,12.581C-4.443,12.581,-4.651,11.579,-4.651,11.579C5.387,9.502,11.863,4.759,12.674,-1.108C13.184,-4.8,11.222,-8.375,7.675,-10.216C1.832,-13.248,-5.924,-11.072,-13.08,-4.398C-13.08,-4.398,-13.778,-5.147,-13.778,-5.147C-6.292,-12.13,1.905,-14.362,8.147,-11.125C12.084,-9.082,14.259,-5.095,13.688,-0.968C12.815,5.347,6.037,10.412,-4.443,12.581Z" /></g></g></g></g><g transform="matrix(1,0,0,1,0,0)"><g transform="matrix(1,0,0,1,0,0)"><g transform="matrix(1,0,0,1,1019.339,379.263)"><g><path fill="#ffffff" fill-opacity="1" d="M-2.782,-10.622C22.785,-2.294,5.83,22.265,-10.328,4.053" /></g></g></g><g transform="matrix(1,0,0,1,0,0)"><g transform="matrix(1,0,0,1,1019.404,379.28)"><g><path fill="#000072" fill-opacity="1" d="M1.582,11.125C-2.473,11.125,-6.879,8.766,-10.775,4.376C-10.775,4.376,-10.009,3.696,-10.009,3.696C-5.206,9.11,0.344,11.275,4.845,9.485C7.928,8.257,9.853,5.339,9.748,2.048C9.585,-3.043,4.817,-7.604,-3.005,-10.152C-3.005,-10.152,-2.687,-11.125,-2.687,-11.125C5.562,-8.437,10.593,-3.526,10.77,2.015C10.889,5.742,8.712,9.047,5.223,10.436C4.06,10.899,2.839,11.125,1.582,11.125Z" /></g></g></g></g><g transform="matrix(1,0,0,1,0,0)"><g transform="matrix(1,0,0,1,980.427,349.135)"><g><path fill="#000072" fill-opacity="1" d="M-19.424,19.215C-19.615,19.215,-19.808,19.2,-20.002,19.171C-22.075,18.855,-23.5,16.918,-23.184,14.844C-20.385,-3.505,-11.411,-16.056,0.822,-18.731C8.631,-20.439,16.304,-17.546,20.372,-11.364C25.131,-4.129,23.889,5.884,17.046,15.423C15.823,17.127,13.448,17.518,11.747,16.296C10.043,15.073,9.651,12.7,10.874,10.996C15.884,4.01,17.033,-2.618,14.026,-7.189C11.702,-10.723,7.156,-12.341,2.444,-11.311C-6.595,-9.334,-13.369,0.872,-15.675,15.99C-15.962,17.869,-17.58,19.215,-19.424,19.215Z" /></g></g></g><g transform="matrix(1,0,0,1,0,0)"><g transform="matrix(1,0,0,1,1011.822,359.648)"><g><path fill="#000072" fill-opacity="1" d="M-4.47,15.877C-6.233,15.877,-7.814,14.642,-8.185,12.848C-8.611,10.794,-7.29,8.784,-5.236,8.359C4.907,6.26,9.027,1.858,9.499,-1.56C9.822,-3.892,8.573,-6.092,6.242,-7.302C2.727,-9.126,-3.584,-8.689,-10.757,-1.997C-12.292,-0.566,-14.695,-0.651,-16.125,-2.184C-17.556,-3.717,-17.472,-6.12,-15.939,-7.551C-7.391,-15.526,2.207,-17.953,9.741,-14.044C14.928,-11.351,17.787,-6.043,17.024,-0.52C16.509,3.203,13.46,12.246,-3.697,15.797C-3.957,15.85,-4.215,15.877,-4.47,15.877Z" /></g></g></g><g transform="matrix(1,0,0,1,0,0)"><g transform="matrix(1,0,0,1,1019.339,379.27)"><g><path fill="#000072" fill-opacity="1" d="M1.637,14.427C-3.354,14.428,-8.625,11.689,-13.169,6.567C-14.562,4.998,-14.417,2.598,-12.848,1.206C-11.281,-0.185,-8.881,-0.043,-7.487,1.526C-3.64,5.861,0.539,7.699,3.694,6.442C5.475,5.733,6.587,4.053,6.527,2.163C6.437,-0.653,3.635,-4.543,-3.958,-7.017C-5.952,-7.667,-7.042,-9.81,-6.392,-11.804C-5.743,-13.799,-3.6,-14.89,-1.605,-14.24C8.018,-11.105,13.896,-5.064,14.12,1.92C14.284,7.047,11.293,11.592,6.503,13.499C4.938,14.122,3.302,14.427,1.637,14.427Z" /></g></g></g></g></g></g></g><g id="Layer 41"><g transform="translate(1068.074,478.419)"><animateTransform repeatCount="indefinite" type="translate" attributeName="transform" dur="4.3s" begin="0s" calcMode="spline" values="1068.074 478.419; 1068.074 478.419; 1068.074 488.419; 1068.074 478.419; 1068.074 488.419; 1068.074 478.419; 1068.074 488.419; 1068.074 478.419; 1068.074 478.419" keyTimes="0; 0.18217; 0.275194; 0.360465; 0.507752; 0.593023; 0.744186; 0.829457; 1" keySplines="0 0 1 1; 0.333 0 0.667 1; 0.333 0 0.667 1; 0.333 0 0.667 1; 0.333 0 0.667 1; 0.167 0 0.667 1; 0.333 0 0.667 1; 0 0 1 1" fill="freeze" /><g transform="rotate(0)"><animateTransform repeatCount="indefinite" type="rotate" attributeName="transform" dur="4.3s" begin="0s" calcMode="spline" values="0; 0; -5; 0; -5; 0; -5; 0; 0" keyTimes="0; 0.18217; 0.275194; 0.360465; 0.507752; 0.593023; 0.744186; 0.829457; 1" keySplines="0 0 1 1; 0.333 0 0.667 1; 0.333 0 0.667 1; 0.333 0 0.667 1; 0.333 0 0.667 1; 0.167 0 0.667 1; 0.333 0 0.667 1; 0 0 1 1" fill="freeze" /><g transform="scale(1,1) translate(-1068.074,-478.419)"><g id="Group 1" transform="matrix(1,0,0,1,1068.074,478.419)"><g id="Group 1"><path fill="#60547b" fill-opacity="1" d="M41.587,-5.802C49.796,23.862,35.359,43.78,19.234,47.872C11.317,49.881,3.054,46.127,-0.79,38.921C-10.731,20.285,-22.949,4.902,-37.442,-7.228C-42.596,-11.542,-45.078,-18.372,-43.485,-24.902C-37.853,-47.988,-4.322,-57.764,21.558,-37.098C31.471,-29.182,38.204,-18.028,41.587,-5.802Z" /></g></g></g></g></g></g><g id="Layer 43"><g transform="translate(1061.04,474.79)"><animateTransform repeatCount="indefinite" type="translate" attributeName="transform" dur="4.3s" begin="0s" calcMode="spline" values="1061.04 474.79; 1061.04 474.79; 1061.04 484.79; 1061.04 474.79; 1061.04 484.79; 1061.04 474.79; 1061.04 484.79; 1061.04 474.79; 1061.04 474.79" keyTimes="0; 0.18217; 0.275194; 0.360465; 0.507752; 0.593023; 0.744186; 0.829457; 1" keySplines="0 0 1 1; 0.333 0 0.667 1; 0.333 0 0.667 1; 0.333 0 0.667 1; 0.333 0 0.667 1; 0.167 0 0.667 1; 0.333 0 0.667 1; 0 0 1 1" fill="freeze" /><g transform="scale(1,1) translate(-1061.04,-474.79)"><g id="Group 1" transform="matrix(1,0,0,1,1061.04,474.79)"><g id="Group 1"><path d="M14.132,18.16C12.752,21.527,12.441,22.449,10.857,23.155C8.209,24.336,6.705,25.409,3.418,24.98C0.052,24.539,-3.54,21.085,-7.622,17.068C-9.117,15.597,-11.255,10.275,-11.831,8.258C-12.666,5.335,-11.854,-0.334,-10.896,-2.2C-8.54,-6.79,-4.454,-11.023,2.027,-10.177C5.779,-9.687,11.979,-9.382,15.536,3.067C16.113,5.084,16.571,7.732,15.803,11.388C15.21,14.21,15.085,15.835,14.132,18.16Z" fill="#000072" fill-opacity="1"><animate repeatCount="indefinite" attributeName="d" dur="4.3s" begin="0s" calcMode="spline" values="M14.132,18.16C12.752,21.527,12.441,22.449,10.857,23.155C8.209,24.336,6.705,25.409,3.418,24.98C0.052,24.539,-3.54,21.085,-7.622,17.068C-9.117,15.597,-11.255,10.275,-11.831,8.258C-12.666,5.335,-11.854,-0.334,-10.896,-2.2C-8.54,-6.79,-4.454,-11.023,2.027,-10.177C5.779,-9.687,11.979,-9.382,15.536,3.067C16.113,5.084,16.571,7.732,15.803,11.388C15.21,14.21,15.085,15.835,14.132,18.16Z; M12.507,10.285C10.855,10.285,9.334,9.198,8.857,7.53C7.105,1.398,4.33,-2.216,1.043,-2.645C-2.323,-3.086,-6.369,-0.254,-9.247,4.568C-10.324,6.368,-12.655,6.958,-14.456,5.883C-16.257,4.808,-16.846,2.476,-15.771,0.675C-11.271,-6.865,-4.454,-11.023,2.027,-10.177C5.779,-9.687,12.604,-7.007,16.161,5.442C16.738,7.459,15.569,9.562,13.553,10.138C13.204,10.237,12.853,10.285,12.507,10.285Z; M12.507,10.285C10.855,10.285,9.334,9.198,8.857,7.53C7.105,1.398,4.33,-2.216,1.043,-2.645C-2.323,-3.086,-6.369,-0.254,-9.247,4.568C-10.324,6.368,-12.655,6.958,-14.456,5.883C-16.257,4.808,-16.846,2.476,-15.771,0.675C-11.271,-6.865,-4.454,-11.023,2.027,-10.177C5.779,-9.687,12.604,-7.007,16.161,5.442C16.738,7.459,15.569,9.562,13.553,10.138C13.204,10.237,12.853,10.285,12.507,10.285Z; M14.132,18.16C12.752,21.527,12.441,22.449,10.857,23.155C8.209,24.336,6.705,25.409,3.418,24.98C0.052,24.539,-3.54,21.085,-7.622,17.068C-9.117,15.597,-11.255,10.275,-11.831,8.258C-12.666,5.335,-11.854,-0.334,-10.896,-2.2C-8.54,-6.79,-4.454,-11.023,2.027,-10.177C5.779,-9.687,11.979,-9.382,15.536,3.067C16.113,5.084,16.571,7.732,15.803,11.388C15.21,14.21,15.085,15.835,14.132,18.16Z; M14.132,18.16C12.752,21.527,12.441,22.449,10.857,23.155C8.209,24.336,6.705,25.409,3.418,24.98C0.052,24.539,-3.54,21.085,-7.622,17.068C-9.117,15.597,-11.255,10.275,-11.831,8.258C-12.666,5.335,-11.854,-0.334,-10.896,-2.2C-8.54,-6.79,-4.454,-11.023,2.027,-10.177C5.779,-9.687,11.979,-9.382,15.536,3.067C16.113,5.084,16.571,7.732,15.803,11.388C15.21,14.21,15.085,15.835,14.132,18.16Z" keyTimes="0; 0.062015; 0.763566; 0.829457; 1" keySplines="0.333 0 0.667 1; 0.333 0 0.667 1; 0.333 0 0.667 1; 0 0 1 1" fill="freeze" /></path></g></g></g></g></g><g id="Layer 33"><g transform="translate(929.38,487.662)"><animateTransform repeatCount="indefinite" type="translate" attributeName="transform" dur="4.3s" begin="0s" calcMode="spline" values="929.38 487.662; 929.38 487.662; 929.38 493.662; 929.38 487.662; 929.38 493.662; 929.38 487.662; 929.38 493.662; 929.38 487.662; 929.38 487.662" keyTimes="0; 0.18217; 0.275194; 0.360465; 0.507752; 0.593023; 0.744186; 0.829457; 1" keySplines="0 0 1 1; 0.333 0 0.667 1; 0.333 0 0.667 1; 0.333 0 0.667 1; 0.333 0 0.667 1; 0.333 0 0.667 1; 0.333 0 0.667 1; 0 0 1 1" fill="freeze" /><g transform="rotate(0)"><animateTransform repeatCount="indefinite" type="rotate" attributeName="transform" dur="4.3s" begin="0s" calcMode="spline" values="0; 0; 5; 0; 5; 0; 5; 0; 0" keyTimes="0; 0.18217; 0.275194; 0.360465; 0.507752; 0.593023; 0.744186; 0.829457; 1" keySplines="0 0 1 1; 0.333 0 0.667 1; 0.333 0 0.667 1; 0.333 0 0.667 1; 0.333 0 0.667 1; 0.333 0 0.667 1; 0.333 0 0.667 1; 0 0 1 1" fill="freeze" /><g transform="scale(0.9,0.9) translate(-924.38,-484.662)"><g id="Group 1" transform="matrix(1,0,0,1,924.38,484.662)"><g id="Group 1"><path fill="#60547b" fill-opacity="1" d="M43.465,-15.158C27.419,-1.997,18.179,17.9,14.066,42.871C12.914,49.867,7.481,55.363,0.531,56.768C-34.449,63.838,-61.449,26.002,-44.275,-16.359C-21.665,-71.184,36.104,-65.119,48.383,-34.443C51.099,-27.657,49.116,-19.793,43.465,-15.158Z" /></g></g></g></g></g></g><g id="Layer 42"><g transform="translate(930.984,477.412)"><animateTransform repeatCount="indefinite" type="translate" attributeName="transform" dur="4.3s" begin="0s" calcMode="spline" values="930.984 477.412; 930.984 477.412; 930.984 483.412; 930.984 477.412; 930.984 483.412; 930.984 477.412; 930.984 483.412; 930.984 477.412; 930.984 477.412" keyTimes="0; 0.18217; 0.275194; 0.360465; 0.507752; 0.593023; 0.744186; 0.829457; 1" keySplines="0 0 1 1; 0.333 0 0.667 1; 0.333 0 0.667 1; 0.333 0 0.667 1; 0.333 0 0.667 1; 0.333 0 0.667 1; 0.333 0 0.667 1; 0 0 1 1" fill="freeze" /><g transform="scale(1,1) translate(-930.984,-477.412)"><g id="Group 1" transform="matrix(1,0,0,1,930.984,477.412)"><g id="Group 1"><path d="M-20.812,7.881C-17.595,-4.574,-9.379,-12.625,0.12,-12.63C0.123,-12.63,0.127,-12.63,0.129,-12.63C7.556,-12.63,13.766,-1.662,11.06,8.127C10.501,10.149,3.868,24.23,1.838,24.757C-0.19,25.285,0.484,27.344,-6.625,28.216C-13.734,29.088,-14.734,25.587,-18.707,20.78C-19.834,19.417,-21.336,9.912,-20.812,7.881Z" fill="#000072" fill-opacity="1"><animate repeatCount="indefinite" attributeName="d" dur="4.3s" begin="0s" calcMode="spline" values="M-20.812,7.881C-17.595,-4.574,-9.379,-12.625,0.12,-12.63C0.123,-12.63,0.127,-12.63,0.129,-12.63C7.556,-12.63,13.766,-1.662,11.06,8.127C10.501,10.149,3.868,24.23,1.838,24.757C-0.19,25.285,0.484,27.344,-6.625,28.216C-13.734,29.088,-14.734,25.587,-18.707,20.78C-19.834,19.417,-21.336,9.912,-20.812,7.881Z; M-20.812,7.881C-17.595,-4.574,-9.379,-12.625,0.12,-12.63C0.123,-12.63,0.127,-12.63,0.129,-12.63C7.556,-12.63,16.816,-7.225,20.81,7.877C21.891,11.963,15.266,14.338,13.213,10.632C12.259,8.909,11.234,-4.906,0.75,-4.534C-9.734,-4.162,-12.609,6.587,-13.707,9.655C-15.246,13.957,-20.859,10.837,-20.812,7.881Z; M-20.812,7.881C-17.595,-4.574,-9.379,-12.625,0.12,-12.63C0.123,-12.63,0.127,-12.63,0.129,-12.63C7.556,-12.63,16.816,-7.225,20.81,7.877C21.891,11.963,15.266,14.338,13.213,10.632C12.259,8.909,11.234,-4.906,0.75,-4.534C-9.734,-4.162,-12.609,6.587,-13.707,9.655C-15.246,13.957,-20.859,10.837,-20.812,7.881Z; M-20.812,7.881C-17.595,-4.574,-9.379,-12.625,0.12,-12.63C0.123,-12.63,0.127,-12.63,0.129,-12.63C7.556,-12.63,13.766,-1.662,11.06,8.127C10.501,10.149,3.868,24.23,1.838,24.757C-0.19,25.285,0.484,27.344,-6.625,28.216C-13.734,29.088,-14.734,25.587,-18.707,20.78C-19.834,19.417,-21.336,9.912,-20.812,7.881Z; M-20.812,7.881C-17.595,-4.574,-9.379,-12.625,0.12,-12.63C0.123,-12.63,0.127,-12.63,0.129,-12.63C7.556,-12.63,13.766,-1.662,11.06,8.127C10.501,10.149,3.868,24.23,1.838,24.757C-0.19,25.285,0.484,27.344,-6.625,28.216C-13.734,29.088,-14.734,25.587,-18.707,20.78C-19.834,19.417,-21.336,9.912,-20.812,7.881Z" keyTimes="0; 0.062015; 0.763566; 0.829457; 1" keySplines="0.333 0 0.667 1; 0.333 0 0.667 1; 0.333 0 0.667 1; 0 0 1 1" fill="freeze" /></path></g></g></g></g></g><g transform="matrix(1,0,0,1,0,0)" id="Layer 44"><g id="Group 1" transform="matrix(1,0,0,1,999.767,506.254)"><g id="Group 1"><path fill="#000072" fill-opacity="1" d="M18.074,-4.431C18.074,3.715,9.982,14.757,0,14.757C-9.982,14.757,-18.074,3.715,-18.074,-4.431C-18.074,-12.577,-9.982,-14.757,0,-14.757C9.982,-14.757,18.074,-12.577,18.074,-4.431Z" /></g></g></g><g transform="matrix(1,0,0,1,0,0)" id="Layer 45"><g id="Group 1" transform="matrix(1,0,0,1,999.766,520.688)"><g id="Group 1"><path fill="#000072" fill-opacity="1" d="M3.799,-5.195C3.799,-5.195,1.104,8.878,1.104,8.878C0.988,9.488,0.399,9.887,-0.211,9.77C-0.675,9.681,-1.018,9.316,-1.103,8.878C-1.103,8.878,-3.797,-5.195,-3.797,-5.195C-4.198,-7.293,-2.823,-9.319,-0.726,-9.721C1.372,-10.122,3.397,-8.748,3.799,-6.65C3.893,-6.159,3.886,-5.658,3.799,-5.195Z" /></g></g></g><g transform="matrix(1,0,0,1,0,0)" opacity="0.3" id="Layer 46"><g id="Group 1" transform="matrix(1,0,0,1,919.275,807.025)"><g id="Group 1"><path fill="#000072" fill-opacity="1" d="M27.65,20.273C27.65,20.273,11.115,20.251,11.115,20.251C-16.093,21.079,-25.796,4.114,-27.65,-14.198C-27.65,-14.198,-27.639,-14.22,-27.639,-14.22C-10.961,1.873,3.046,3.043,12.66,-20.28C12.66,-20.28,14.382,-19.827,14.382,-19.827C14.382,-19.827,17.042,5.471,17.042,5.471C17.042,5.471,27.65,20.273,27.65,20.273Z" /></g></g></g><g transform="matrix(1,0,0,1,0,0)" opacity="0.3" id="Layer 47"><g id="Group 1" transform="matrix(1,0,0,1,853.426,796.32)"><g id="Group 1"><path fill="#000072" fill-opacity="1" d="M6.598,-13.177C6.598,-13.177,8.159,12.047,-23.003,-9.575C-23.003,-9.575,-22.038,-3.819,-22.038,-3.819C-22.038,-3.819,-7.167,10.058,-7.167,10.058C-7.167,10.058,1.999,13.177,1.999,13.177C1.999,13.177,16.861,11.535,16.861,11.535C16.861,11.535,20.644,10.705,20.644,10.705C20.644,10.705,23.003,7.441,23.003,7.441C23.003,7.441,20.955,1.299,20.955,1.299C20.955,1.299,15.065,-6.419,15.065,-6.419C15.065,-6.419,8.672,-13.032,8.672,-13.032C8.672,-13.032,6.598,-13.177,6.598,-13.177Z" /></g></g></g><g transform="matrix(1,0,0,1,0,0)" opacity="0.5" id="Layer 48"><g id="Group 1" transform="matrix(1,0,0,1,0,0)"><g id="Group 1" transform="matrix(1,0,0,1,998.687,499.42)"><g id="Group 1"><path fill="#ffffff" fill-opacity="1" d="M6.241,-0.796C6.265,0.268,3.502,1.758,0.055,1.835C-3.392,1.912,-6.217,0.545,-6.241,-0.519C-6.265,-1.583,-3.473,-1.735,-0.026,-1.812C3.421,-1.889,6.217,-1.86,6.241,-0.796Z" /></g></g></g></g><g visibility="hidden" id="Shape Layer 1"><animate repeatCount="indefinite" begin="0s" calcMode="discrete" dur="4.3s" values="hidden; visible; visible" keyTimes="0; 0.105; 1" attributeName="visibility" /><g transform="translate(1045.416,551)"><g transform="scale(0,0)"><animateTransform repeatCount="indefinite" type="scale" attributeName="transform" dur="4.3s" begin="0s" calcMode="spline" values="0 0; 0 0; 1 1; 1 1" keyTimes="0; 0.112403; 0.151163; 1" keySplines="0 0 1 1; 0.333 0 0.667 1; 0 0 1 1" fill="freeze" /><g transform="translate(-85.416,-11)"><g id="Shape 1"><path d="M83.25,-1C83.25,-1,66,17.25,88.5,28.25" stroke-miterlimit="4" stroke-linejoin="miter" stroke-linecap="round" stroke-width="6" stroke-opacity="1" stroke="#000072"><animate repeatCount="indefinite" attributeName="d" dur="4.3s" begin="0s" calcMode="spline" values="M83.25,-1C83.25,-1,66,17.25,88.5,28.25; M83.25,-1C83.25,-1,66,17.25,88.5,28.25; M79.375,14.25C79.375,14.25,79.25,14.375,79.375,14.25; M79.375,14.25C79.375,14.25,79.25,14.375,79.375,14.25" keyTimes="0; 0.848837; 0.937984; 1" keySplines="0 0 1 1; 0.333 0 0.833 0.833; 0 0 1 1" fill="freeze" /></path></g></g></g></g></g><g transform="matrix(1,0,0,1,0,0)" id="Layer 51"><g id="Group 1" transform="matrix(1,0,0,1,999.838,560.824)"><g id="Group 1"><path d="M45.558,17.293C43.887,19.169,42.08,20.872,40.161,22.416C29.765,30.711,16.003,34.184,2.439,34.615C-12.637,35.101,-29.81,34.136,-38.914,26.2C-41.599,23.749,-43.919,21.305,-45.921,18.867C-71.134,-11.708,-45.548,-39.788,-22.82,-31.74C-8.859,-25.925,7.022,-25.125,19.828,-32.503C43.992,-43.301,72.234,-12.692,45.558,17.293Z" fill="#000072" fill-opacity="1"><animate repeatCount="indefinite" attributeName="d" dur="4.3s" begin="0s" calcMode="spline" values="M45.558,17.293C43.887,19.169,42.08,20.872,40.161,22.416C29.765,30.711,16.003,34.184,2.439,34.615C-12.637,35.101,-29.81,34.136,-38.914,26.2C-41.599,23.749,-43.919,21.305,-45.921,18.867C-71.134,-11.708,-45.548,-39.788,-22.82,-31.74C-8.859,-25.925,7.022,-25.125,19.828,-32.503C43.992,-43.301,72.234,-12.692,45.558,17.293Z; M45.558,17.293C43.887,19.169,42.08,20.872,40.161,22.416C29.765,30.711,16.003,34.184,2.439,34.615C-12.637,35.101,-29.81,34.136,-38.914,26.2C-41.599,23.749,-43.919,21.305,-45.921,18.867C-71.134,-11.708,-45.548,-39.788,-22.82,-31.74C-8.859,-25.925,7.022,-25.125,19.828,-32.503C43.992,-43.301,72.234,-12.692,45.558,17.293Z; M35.558,-9.957C42.948,-4.52,30.423,8.744,28.412,10.166C19.912,16.176,9.412,17.176,4.939,17.615C-0.827,18.18,-7.089,16.677,-17.664,14.45C-20.349,11.999,-34.089,8.176,-29.422,1.867C-26.924,-1.509,-21.339,2.426,-15.82,4.76C-1.859,10.575,9.772,9.375,22.578,1.997C27.662,-1.073,31.662,-12.823,35.558,-9.957Z; M35.558,-9.957C42.948,-4.52,30.423,8.744,28.412,10.166C19.912,16.176,10.691,16.57,6.439,15.115C-4.338,11.426,-4.089,6.677,-14.664,4.45C-17.349,1.999,-34.089,8.176,-29.422,1.867C-26.924,-1.509,-18.589,-6.824,-13.07,-4.49C0.891,1.325,9.162,15.677,22.578,1.997C27.662,-1.073,31.662,-12.823,35.558,-9.957Z; M39.058,-6.707C46.448,-1.27,31.173,6.494,29.162,7.916C20.662,13.926,13.397,6.046,8.939,6.615C-1.338,7.926,-5.089,16.177,-15.664,13.95C-18.349,11.499,-34.089,8.176,-29.422,1.867C-26.924,-1.509,-18.589,7.676,-14.07,7.01C5.411,4.176,0.912,-6.323,22.578,1.997C33.662,0.677,35.162,-9.573,39.058,-6.707Z; M39.058,-6.707C46.448,-1.27,31.173,6.494,29.162,7.916C20.662,13.926,13.897,17.296,9.439,17.865C-0.838,19.176,-5.089,16.177,-15.664,13.95C-18.349,11.499,-34.089,8.176,-29.422,1.867C-26.924,-1.509,-18.577,6.269,-14.07,7.01C3.661,9.926,7.412,14.427,22.578,1.997C33.662,0.677,35.162,-9.573,39.058,-6.707Z; M35.558,-9.957C42.948,-4.52,30.423,8.744,28.412,10.166C19.912,16.176,10.691,16.57,6.439,15.115C-4.338,11.426,-4.089,6.677,-14.664,4.45C-17.349,1.999,-34.089,8.176,-29.422,1.867C-26.924,-1.509,-18.589,-6.824,-13.07,-4.49C0.891,1.325,9.162,15.677,22.578,1.997C27.662,-1.073,31.662,-12.823,35.558,-9.957Z; M39.058,-6.707C46.448,-1.27,31.173,6.494,29.162,7.916C20.662,13.926,13.397,6.046,8.939,6.615C-1.338,7.926,-5.089,16.177,-15.664,13.95C-18.349,11.499,-34.089,8.176,-29.422,1.867C-26.924,-1.509,-18.589,7.676,-14.07,7.01C5.411,4.176,0.912,-6.323,22.578,1.997C33.662,0.677,35.162,-9.573,39.058,-6.707Z; M39.058,-6.707C46.448,-1.27,31.173,6.494,29.162,7.916C20.662,13.926,13.897,17.296,9.439,17.865C-0.838,19.176,-5.089,16.177,-15.664,13.95C-18.349,11.499,-34.089,8.176,-29.422,1.867C-26.924,-1.509,-18.577,6.269,-14.07,7.01C3.661,9.926,7.412,14.427,22.578,1.997C33.662,0.677,35.162,-9.573,39.058,-6.707Z; M35.558,-9.957C42.948,-4.52,30.423,8.744,28.412,10.166C19.912,16.176,10.691,16.57,6.439,15.115C-4.338,11.426,-4.089,6.677,-14.664,4.45C-17.349,1.999,-34.089,8.176,-29.422,1.867C-26.924,-1.509,-18.589,-6.824,-13.07,-4.49C0.891,1.325,9.162,15.677,22.578,1.997C27.662,-1.073,31.662,-12.823,35.558,-9.957Z; M39.058,-6.707C46.448,-1.27,31.173,6.494,29.162,7.916C20.662,13.926,13.397,6.046,8.939,6.615C-1.338,7.926,-5.089,16.177,-15.664,13.95C-18.349,11.499,-34.089,8.176,-29.422,1.867C-26.924,-1.509,-18.589,7.676,-14.07,7.01C5.411,4.176,0.912,-6.323,22.578,1.997C33.662,0.677,35.162,-9.573,39.058,-6.707Z; M39.058,-6.707C46.448,-1.27,31.173,6.494,29.162,7.916C20.662,13.926,13.897,17.296,9.439,17.865C-0.838,19.176,-5.089,16.177,-15.664,13.95C-18.349,11.499,-34.089,8.176,-29.422,1.867C-26.924,-1.509,-18.577,6.269,-14.07,7.01C3.661,9.926,7.412,14.427,22.578,1.997C33.662,0.677,35.162,-9.573,39.058,-6.707Z; M45.558,17.293C43.887,19.169,42.08,20.872,40.161,22.416C29.765,30.711,16.003,34.184,2.439,34.615C-12.637,35.101,-29.81,34.136,-38.914,26.2C-41.599,23.749,-43.919,21.305,-45.921,18.867C-71.134,-11.708,-45.548,-39.788,-22.82,-31.74C-8.859,-25.925,7.022,-25.125,19.828,-32.503C43.992,-43.301,72.234,-12.692,45.558,17.293Z; M45.558,17.293C43.887,19.169,42.08,20.872,40.161,22.416C29.765,30.711,16.003,34.184,2.439,34.615C-12.637,35.101,-29.81,34.136,-38.914,26.2C-41.599,23.749,-43.919,21.305,-45.921,18.867C-71.134,-11.708,-45.548,-39.788,-22.82,-31.74C-8.859,-25.925,7.022,-25.125,19.828,-32.503C43.992,-43.301,72.234,-12.692,45.558,17.293Z" keyTimes="0; 0.096899; 0.182171; 0.275194; 0.360465; 0.437984; 0.507752; 0.593023; 0.670543; 0.744186; 0.829457; 0.906977; 0.996124; 1" keySplines="0 0 1 1; 0.333 0 0.833 0.833; 0 0 1 1; 0 0 1 1; 0 0 1 1; 0 0 1 1; 0 0 1 1; 0 0 1 1; 0 0 1 1; 0 0 1 1; 0 0 1 1; 0.167 0.167 0.667 1; 0 0 1 1" fill="freeze" /></path></g></g></g><g transform="matrix(1,0,0,1,0,0)" id="Layer 51"><g id="Layer 52"><g transform="translate(996.964,577.824)"><g transform="scale(1,1)"><animateTransform repeatCount="indefinite" type="scale" attributeName="transform" dur="4.3s" begin="0s" calcMode="spline" values="1 1; 1 1; 0 0; 0 0; 1 1; 1 1" keyTimes="0; 0.096899; 0.182171; 0.899225; 0.996124; 1" keySplines="0 0 1 1; 0.333 0 0.667 1; 0.333 0 0.667 1; 0.167 0 0.667 1; 0 0 1 1" fill="freeze" /><g transform="translate(-996.964,-577.824)"><g id="Group 1" transform="matrix(1,0,0,1,996.964,577.824)"><g id="Group 1"><path fill="#ff2c4b" fill-opacity="1" d="M43.036,5.416C32.64,13.711,18.877,17.183,5.313,17.614C-9.763,18.1,-26.935,17.135,-36.039,9.199C-38.724,6.748,-41.045,4.304,-43.047,1.866C-41.873,-26.502,44.199,-22.952,43.036,5.416Z" /></g></g></g></g></g></g></g><g opacity="0" id="Layer 53"><animate repeatCount="indefinite" attributeName="opacity" dur="4.3s" begin="0s" fill="freeze" values="0; 1; 1" keyTimes="0; 0.05814; 1" keySplines="0.333 0 0.667 1; 0 0 1 1" calcMode="spline" /><g transform="translate(1001.221,653.656)"><animateTransform repeatCount="indefinite" type="translate" attributeName="transform" dur="4.3s" begin="0s" calcMode="spline" values="1001.221 653.656; 983.221 575.656; 1001.596 576.406; 1001.596 576.406" keyTimes="0; 0.096899; 0.18217; 1" keySplines="0.333 0 0.833 0.833; 0.167 0.167 0.28 1; 0 0 1 1" fill="freeze" /><g transform="scale(1,1)"><animateTransform repeatCount="indefinite" type="scale" attributeName="transform" dur="4.3s" begin="0s" calcMode="spline" values="1 1; 1 1; 0 0; 0 0" keyTimes="0; 0.096899; 0.182171; 1" keySplines="0 0 1 1; 0.167 0.167 0.28 1; 0 0 1 1" fill="freeze" /><g transform="translate(-985.221,-614.656)"><g id="Group 3" transform="matrix(1,0,0,1,0,0)"><g id="Group 2" transform="matrix(1,0,0,1,985.224,614.651)"><g id="Group 1"><path fill="#ffe082" fill-opacity="1" d="M4.433,32.472C14.731,36.153,26.063,30.79,29.744,20.492C33.014,11.344,29.136,1.394,21.012,-3.298C22.566,-5.013,23.819,-7.052,24.647,-9.367C28.022,-18.807,23.105,-29.194,13.666,-32.569C4.227,-35.944,-6.161,-31.027,-9.536,-21.587C-10.031,-20.203,-10.327,-18.801,-10.477,-17.401C-18.837,-17.664,-26.775,-12.578,-29.742,-4.278C-33.423,6.02,-28.061,17.352,-17.763,21.033C-14.187,22.312,-10.491,22.477,-7.029,21.746C-4.92,26.573,-0.918,30.559,4.433,32.472Z" /></g></g><g id="Group 1" transform="matrix(1,0,0,1,985.221,614.655)"><g id="Group 1"><path fill="#000072" fill-opacity="1" d="M11.116,34.414C8.781,34.414,6.439,34.011,4.175,33.201C-1.011,31.348,-5.127,27.605,-7.481,22.624C-11.023,23.263,-14.656,22.967,-18.021,21.762C-23.198,19.912,-27.343,16.156,-29.695,11.188C-32.047,6.219,-32.324,0.631,-30.472,-4.545C-27.535,-12.761,-19.833,-18.172,-11.16,-18.194C-10.978,-19.471,-10.678,-20.7,-10.266,-21.854C-6.752,-31.684,4.104,-36.823,13.932,-33.307C23.762,-29.794,28.899,-18.939,25.385,-9.109C24.65,-7.055,23.583,-5.169,22.206,-3.491C30.244,1.647,33.72,11.687,30.48,20.751C28.63,25.927,24.875,30.073,19.906,32.425C17.111,33.748,14.12,34.413,11.116,34.414ZM-6.566,20.848C-6.566,20.848,-6.312,21.429,-6.312,21.429C-4.183,26.298,-0.273,29.957,4.699,31.734C4.699,31.734,4.699,31.734,4.699,31.734C9.488,33.443,14.648,33.189,19.239,31.016C23.833,28.842,27.303,25.011,29.013,20.226C32.105,11.576,28.579,1.964,20.626,-2.627C20.626,-2.627,19.791,-3.11,19.791,-3.11C19.791,-3.11,20.437,-3.825,20.437,-3.825C21.976,-5.524,23.146,-7.478,23.918,-9.634C27.142,-18.654,22.426,-28.615,13.408,-31.84C4.387,-35.062,-5.574,-30.348,-8.799,-21.329C-9.244,-20.08,-9.548,-18.732,-9.698,-17.322C-9.698,-17.322,-9.775,-16.603,-9.775,-16.603C-9.775,-16.603,-10.498,-16.626,-10.498,-16.626C-18.724,-16.891,-26.216,-11.822,-29.005,-4.02C-30.715,0.764,-30.461,5.928,-28.287,10.521C-26.113,15.113,-22.281,18.584,-17.497,20.295C-14.207,21.471,-10.643,21.707,-7.188,20.979C-7.188,20.979,-6.566,20.848,-6.566,20.848Z" /></g></g></g><g id="Group 2" transform="matrix(1,0,0,1,0,0)"><g id="Group 1" transform="matrix(1,0,0,1,985.22,627.431)"><g id="Group 1"><path fill="#000072" fill-opacity="1" d="M12.799,11.805C1.898,13.556,-2.734,-1.355,-2.734,-1.355C-28.547,5.028,-27.588,-20.835,-27.588,-20.835C-27.588,-20.835,-27.893,-20.853,-27.893,-20.853C-28.624,-19.677,-29.253,-18.416,-29.738,-17.059C-33.419,-6.761,-28.056,4.571,-17.759,8.252C-14.183,9.531,-10.487,9.696,-7.025,8.965C-4.915,13.792,-0.914,17.779,4.437,19.692C14.735,23.373,26.067,18.01,29.748,7.712C31.246,3.522,31.229,-0.832,30.007,-4.776C30.007,-4.776,23.058,-11.121,23.058,-11.121C23.058,-11.121,23.7,10.054,12.799,11.805Z" /></g></g></g><g id="Group 1" transform="matrix(1,0,0,1,0,0)"><g id="Group 1" transform="matrix(1,0,0,1,985.221,614.656)"><g id="Group 1"><path fill="#000072" fill-opacity="1" d="M11.12,38.756C8.291,38.757,5.456,38.269,2.714,37.288C-2.562,35.403,-6.925,31.903,-9.874,27.26C-13.143,27.418,-16.4,26.951,-19.484,25.848C-25.751,23.608,-30.772,19.06,-33.619,13.043C-36.468,7.026,-36.801,0.261,-34.561,-6.008C-31.407,-14.827,-23.716,-20.98,-14.695,-22.281C-14.59,-22.629,-14.477,-22.973,-14.357,-23.313C-10.033,-35.401,3.319,-41.716,15.394,-37.396C27.477,-33.077,33.793,-19.732,29.474,-7.649C29.077,-6.54,28.601,-5.469,28.049,-4.444C35.238,2.208,37.984,12.656,34.569,22.21C32.329,28.478,27.781,33.499,21.765,36.347C18.38,37.95,14.757,38.756,11.12,38.756ZM-7.024,16.619C-5.024,16.619,-3.161,17.795,-2.333,19.689C-0.689,23.449,2.327,26.275,6.161,27.644C6.161,27.644,6.161,27.645,6.161,27.645C9.851,28.962,13.837,28.769,17.382,27.09C20.927,25.413,23.607,22.455,24.925,18.763C27.312,12.089,24.59,4.673,18.456,1.131C17.116,0.357,16.197,-0.98,15.957,-2.509C15.717,-4.038,16.183,-5.593,17.221,-6.74C18.373,-8.014,19.251,-9.48,19.831,-11.098C22.248,-17.862,18.711,-25.334,11.947,-27.753C5.175,-30.172,-2.291,-26.634,-4.71,-19.869C-5.04,-18.945,-5.267,-17.931,-5.382,-16.86C-5.665,-14.198,-7.897,-12.218,-10.634,-12.288C-17.041,-12.495,-22.766,-8.579,-24.916,-2.56C-26.236,1.133,-26.04,5.118,-24.363,8.662C-22.686,12.206,-19.727,14.886,-16.035,16.206C-13.498,17.113,-10.748,17.293,-8.084,16.731C-7.729,16.656,-7.374,16.619,-7.024,16.619Z" /></g></g></g></g></g></g></g><g transform="matrix(1,0,0,1,2.741,3.044)" id="Layer 49"><g id="Group 21" transform="matrix(1,0,0,1,0,0)"><g id="Group 2" transform="matrix(1,0,0,1,992.212,633.575)"><g id="Group 1" transform="matrix(1,0,0,1,992.212,633.575)"><g id="Group 1"><path fill="#7a2938" fill-opacity="1" d="M0.011,0.011C0.011,0.011,-0.011,0,-0.011,0C-0.011,0,-0.011,-0.011,0,-0.011C0,-0.011,0.011,0,0.011,0.011Z" /></g></g></g><g id="Group 1" transform="matrix(1,0,0,1,992.211,633.733)"><g id="Group 1" transform="matrix(1,0,0,1,992.211,633.733)"><g id="Group 1"><path fill="#000072" fill-opacity="1" d="M0.523,0.681C0.523,0.681,-0.523,0.158,-0.523,0.158C-0.523,0.158,-0.523,-0.67,-0.523,-0.67C-0.523,-0.67,0.227,-0.681,0.227,-0.681C0.227,-0.681,0.513,-0.367,0.513,-0.367C0.513,-0.367,0.523,0.681,0.523,0.681ZM0.001,-0.139C0.001,-0.139,0.001,0.343,0.001,0.343C0.001,0.343,0.001,-0.139,0.001,-0.139ZM-0.501,-0.147C-0.501,-0.147,-0.023,-0.147,-0.023,-0.147C-0.023,-0.147,-0.501,-0.147,-0.501,-0.147Z" /></g></g></g></g><g id="Group 20" transform="matrix(1,0,0,1,0,0)"><g id="Group 2" transform="matrix(1,0,0,1,992.212,633.575)"><g id="Group 1" transform="matrix(1,0,0,1,992.212,633.575)"><g id="Group 1"><path fill="#7a2938" fill-opacity="1" d="M0.011,0.011C0.011,0.011,-0.011,0,-0.011,0C-0.011,0,-0.011,-0.011,0,-0.011C0,-0.011,0.011,0,0.011,0.011Z" /></g></g></g><g id="Group 1" transform="matrix(1,0,0,1,992.211,633.733)"><g id="Group 1" transform="matrix(1,0,0,1,992.211,633.733)"><g id="Group 1"><path fill="#000072" fill-opacity="1" d="M0.523,0.681C0.523,0.681,-0.523,0.158,-0.523,0.158C-0.523,0.158,-0.523,-0.67,-0.523,-0.67C-0.523,-0.67,0.227,-0.681,0.227,-0.681C0.227,-0.681,0.513,-0.367,0.513,-0.367C0.513,-0.367,0.523,0.681,0.523,0.681ZM0.001,-0.139C0.001,-0.139,0.001,0.343,0.001,0.343C0.001,0.343,0.001,-0.139,0.001,-0.139ZM-0.501,-0.147C-0.501,-0.147,-0.023,-0.147,-0.023,-0.147C-0.023,-0.147,-0.501,-0.147,-0.501,-0.147Z" /></g></g></g></g><g id="Group 19" transform="matrix(1,0,0,1,0,0)"><g id="Group 1" transform="matrix(1,0,0,1,1012.518,653.178)"><g id="Group 1"><path fill="#ffe082" fill-opacity="1" d="M83.946,16.953C83.946,16.953,71.771,25.563,68.868,29.183C68.868,29.183,-77.073,28.62,-77.073,28.62C-95.396,8.564,-73.044,-14.062,-57.039,-0.817C-57.249,-8.4,-48.607,-13.412,-42.801,-10.233C-39.236,-23.401,-27.525,-26.756,-20.306,-19.615C-20.317,-19.615,-20.317,-19.604,-20.317,-19.604C-20.317,-19.604,-20.295,-19.593,-20.295,-19.593C-20.295,-19.604,-20.306,-19.615,-20.306,-19.615C-10.67,-33.655,20.5,-33.368,27.675,-11.204C36.792,-18.93,49.442,-17.286,49.872,-4.692C62.753,-11.083,83.162,-2.716,83.946,16.953Z" /></g></g></g><g id="Group 17" transform="matrix(1,0,0,1,0,0)"><g id="Group 1" transform="matrix(1,0,0,1,1003.858,660.451)"><g id="Group 1"><path fill="#ffffff" fill-opacity="1" d="M15.726,-5.421C17.745,-3.785,15.819,-0.673,13.412,-1.652C12.078,-2.195,10.458,-2.525,8.506,-2.558C1.182,-2.681,-1.773,2.197,-3.155,5.606C-3.482,6.412,-4.233,6.965,-5.101,7.016C-5.101,7.016,-5.101,7.016,-5.101,7.016C-5.735,7.053,-6.359,6.824,-6.805,6.371C-8.553,4.595,-11.083,2.826,-13.98,4.851C-15.046,5.598,-15.691,6.605,-16.067,7.658C-16.067,7.658,-16.392,7.677,-16.392,7.677C-16.392,7.677,-17.553,2.234,-13.98,-0.267C-9.067,-3.706,-5.193,3.791,-4.434,3.702C-3.675,3.613,-2.673,-7.86,8.506,-7.675C11.767,-7.621,14.099,-6.739,15.726,-5.421Z" /></g></g></g><g id="Group 16" transform="matrix(1,0,0,1,0,0)"><g id="Group 1" transform="matrix(1,0,0,1,1005.131,659.66)"><g id="Group 1"><path fill="#000072" fill-opacity="1" d="M-18.499,8.643C-18.956,7.318,-19.125,6.016,-19.077,4.589C-18.969,3.195,-18.615,1.651,-17.625,0.338C-16.62,-0.94,-15.325,-2,-13.457,-2.37C-12.545,-2.539,-11.571,-2.483,-10.718,-2.248C-9.859,-2.017,-9.103,-1.649,-8.436,-1.238C-7.111,-0.397,-6.118,0.633,-5.232,1.578C-5.232,1.578,-4.618,2.237,-4.618,2.237C-4.528,2.33,-4.445,2.413,-4.389,2.463C-4.378,2.47,-4.346,2.494,-4.381,2.46C-4.409,2.433,-4.44,2.409,-4.472,2.388C-4.57,2.313,-4.737,2.217,-4.882,2.167C-5.065,2.088,-5.374,2.009,-5.632,2.006C-5.77,2.001,-5.89,2.01,-6.033,2.028C-6.202,2.047,-6.382,2.086,-6.558,2.151C-6.733,2.215,-6.904,2.305,-7.056,2.409C-7.132,2.461,-7.203,2.517,-7.269,2.575C-7.269,2.575,-7.404,2.702,-7.404,2.702C-7.461,2.755,-7.514,2.812,-7.563,2.874C-7.612,2.936,-7.657,3.001,-7.696,3.068C-7.729,3.125,-7.717,3.098,-7.728,3.118C-7.74,3.135,-7.749,3.154,-7.757,3.173C-7.757,3.173,-7.677,2.933,-7.677,2.933C-7.677,2.933,-7.407,2.092,-7.407,2.092C-6.638,-0.374,-5.412,-3.067,-3.323,-5.216C-2.283,-6.285,-1.052,-7.229,0.318,-7.89C1.682,-8.565,3.158,-8.939,4.596,-9.112C6.042,-9.288,7.449,-9.233,8.829,-9.062C10.216,-8.886,11.62,-8.482,12.972,-7.911C14.296,-7.242,15.602,-6.424,16.558,-5.231C17.52,-4.079,18.273,-2.763,18.639,-1.376C19.373,1.384,19.198,4.182,18.131,6.661C17.944,7.096,17.44,7.297,17.005,7.11C16.642,6.954,16.442,6.578,16.493,6.205C16.493,6.205,16.5,6.163,16.5,6.163C16.809,3.933,16.462,1.598,15.593,-0.264C15.142,-1.194,14.541,-1.979,13.835,-2.611C13.835,-2.611,13.286,-3.057,13.286,-3.057C13.286,-3.057,12.669,-3.413,12.669,-3.413C12.48,-3.549,12.261,-3.648,12.033,-3.733C12.033,-3.733,11.372,-4.015,11.372,-4.015C10.424,-4.29,9.436,-4.488,8.378,-4.512C7.318,-4.57,6.261,-4.553,5.279,-4.366C3.312,-3.996,1.646,-3.144,0.345,-1.734C-0.959,-0.309,-1.87,1.551,-2.639,3.717C-2.639,3.717,-2.964,4.615,-2.964,4.615C-3.025,4.78,-3.099,4.973,-3.215,5.232C-3.215,5.232,-3.347,5.492,-3.347,5.492C-3.347,5.492,-3.433,5.643,-3.433,5.643C-3.494,5.741,-3.562,5.838,-3.633,5.93C-3.705,6.023,-3.781,6.111,-3.86,6.195C-3.86,6.195,-3.943,6.279,-4.016,6.34C-4.09,6.403,-4.171,6.463,-4.255,6.52C-4.423,6.634,-4.611,6.732,-4.803,6.806C-4.995,6.88,-5.192,6.93,-5.377,6.958C-5.538,6.979,-5.678,6.98,-5.835,6.973C-6.131,6.963,-6.477,6.88,-6.697,6.791C-6.908,6.703,-7.144,6.572,-7.308,6.457C-7.308,6.457,-7.578,6.242,-7.578,6.242C-7.729,6.109,-7.807,6.025,-7.905,5.925C-8.062,5.755,-8.184,5.61,-8.297,5.474C-8.297,5.474,-8.885,4.742,-8.885,4.742C-9.601,3.839,-10.304,3.066,-11.007,2.518C-11.711,1.951,-12.313,1.681,-12.89,1.697C-13.465,1.674,-14.344,2.054,-14.94,2.606C-16.219,3.697,-16.814,6.069,-16.83,8.287C-16.83,8.287,-16.831,8.369,-16.831,8.369C-16.834,8.843,-17.221,9.223,-17.695,9.22C-18.067,9.217,-18.383,8.976,-18.499,8.643Z" /></g></g></g><g id="Group 15" transform="matrix(1,0,0,1,0,0)"><g id="Group 1" transform="matrix(1,0,0,1,1042.1,756.115)"><g id="Group 1"><path fill="#ff2c4b" fill-opacity="1" d="M-64.502,-74.317C-64.502,-74.317,10.874,-74.317,10.874,-74.317C10.874,-74.317,53.032,-74.317,53.032,-74.317C59.831,-74.317,65.138,-68.435,64.441,-61.672C64.441,-61.672,52.516,54.1,52.516,54.1C51.333,65.586,41.656,74.317,30.11,74.317C30.11,74.317,-4.435,74.317,-4.435,74.317C-4.435,74.317,-49.182,74.317,-49.182,74.317" /></g></g></g><g id="Group 14" transform="matrix(1,0,0,1,0,0)"><g id="Group 1" transform="matrix(1,0,0,1,1071.117,758.066)"><g id="Group 1"><path fill="#ffffff" fill-opacity="1" d="M15.339,-55.544C15.339,-55.544,1.315,56.124,1.315,56.124C1.166,57.313,0.155,58.205,-1.043,58.205C-1.043,58.205,-12.992,58.205,-12.992,58.205C-14.402,58.205,-15.499,56.979,-15.343,55.577C-15.343,55.577,-2.907,-56.101,-2.907,-56.101C-2.774,-57.299,-1.76,-58.205,-0.555,-58.205C-0.555,-58.205,12.992,-58.205,12.992,-58.205C14.416,-58.205,15.516,-56.957,15.339,-55.544Z" /></g></g></g><g id="Group 13" transform="matrix(1,0,0,1,0,0)"><g id="Group 1" transform="matrix(1,0,0,1,1042.1,754.068)"><g id="Group 1"><path fill="#000072" fill-opacity="1" d="M64.441,-61.668C64.441,-61.668,52.52,54.096,52.52,54.096C51.328,65.586,41.659,74.317,30.114,74.317C30.114,74.317,-49.181,74.317,-49.181,74.317C-49.181,74.317,-64.502,-74.317,-64.502,-74.317C-64.502,-74.317,-63.001,-74.317,-63.001,-74.317C-63.001,-74.317,-49.181,59.703,-49.181,59.703C-49.181,59.703,30.114,59.703,30.114,59.703C41.659,59.703,51.328,50.972,52.52,39.482C52.52,39.482,63.536,-67.463,63.536,-67.463C64.309,-65.708,64.651,-63.732,64.441,-61.668Z" /></g></g></g><g id="Group 12" transform="matrix(1,0,0,1,0,0)"><g id="Group 1" transform="matrix(1,0,0,1,1072.68,689.445)"><g id="Group 1"><path fill="#ffffff" fill-opacity="1" d="M33.861,3.979C33.861,3.979,33.375,8.67,33.375,8.67C31.896,4.089,27.603,0.712,22.448,0.712C22.448,0.712,-21.571,0.712,-21.571,0.712C-23.061,-4.652,-27.984,-8.67,-33.922,-8.67C-33.922,-8.67,22.448,-8.67,22.448,-8.67C29.247,-8.67,34.556,-2.787,33.861,3.979Z" /></g></g></g><g id="Group 11" transform="matrix(1,0,0,1,0,0)"><g id="Group 1" transform="matrix(1,0,0,1,1042.099,756.116)"><g id="Group 1"><path fill="#000072" fill-opacity="1" d="M30.111,78.18C30.111,78.18,-49.181,78.18,-49.181,78.18C-51.314,78.18,-53.044,76.451,-53.044,74.317C-53.044,72.183,-51.314,70.454,-49.181,70.454C-49.181,70.454,30.111,70.454,30.111,70.454C39.711,70.454,47.69,63.253,48.674,53.704C48.674,53.704,60.599,-62.068,60.599,-62.068C60.822,-64.237,60.142,-66.324,58.68,-67.943C57.22,-69.562,55.213,-70.454,53.033,-70.454C53.033,-70.454,-64.501,-70.454,-64.501,-70.454C-66.634,-70.454,-68.365,-72.183,-68.365,-74.317C-68.365,-76.451,-66.634,-78.18,-64.501,-78.18C-64.501,-78.18,53.033,-78.18,53.033,-78.18C57.366,-78.18,61.514,-76.335,64.417,-73.119C67.319,-69.902,68.729,-65.587,68.285,-61.277C68.285,-61.277,56.36,54.496,56.36,54.496C54.97,67.998,43.685,78.18,30.111,78.18Z" /></g></g></g><g id="Group 10" transform="matrix(1,0,0,1,0,0)"><g id="Group 1" transform="matrix(1,0,0,1,987.782,756.115)"><g id="Group 1"><path fill="#ff2c4b" fill-opacity="1" d="M31.503,74.321C31.503,74.321,-29.411,74.321,-29.411,74.321C-40.957,74.321,-50.634,65.59,-51.817,54.105C-51.817,54.105,-63.746,-61.676,-63.746,-61.676C-64.443,-68.44,-59.136,-74.321,-52.337,-74.321C-52.337,-74.321,50.981,-74.321,50.981,-74.321C58.585,-74.321,64.518,-67.744,63.739,-60.18C63.739,-60.18,51.764,56.04,51.764,56.04C50.694,66.426,41.944,74.321,31.503,74.321Z" /></g></g></g><g id="Group 9" transform="matrix(1,0,0,1,0,0)"><g id="Group 1" transform="matrix(1,0,0,1,964.017,758.066)"><g id="Group 1"><path fill="#ffffff" fill-opacity="1" d="M12.24,-55.822C12.24,-55.822,12.24,55.822,12.24,55.822C12.24,57.138,11.174,58.205,9.858,58.205C9.858,58.205,-2.556,58.205,-2.556,58.205C-2.961,58.205,-3.362,58.194,-3.761,58.172C-4.954,58.107,-5.891,57.12,-5.958,55.928C-5.958,55.928,-12.236,-55.689,-12.236,-55.689C-12.313,-57.055,-11.226,-58.205,-9.857,-58.205C-9.857,-58.205,9.858,-58.205,9.858,-58.205C11.174,-58.205,12.24,-57.138,12.24,-55.822Z" /></g></g></g><g id="Group 8" transform="matrix(1,0,0,1,0,0)"><g id="Group 1" transform="matrix(1,0,0,1,1012.042,758.066)"><g id="Group 1"><path fill="#ffffff" fill-opacity="1" d="M12.2,-55.688C12.2,-55.688,5.913,55.956,5.913,55.956C5.842,57.218,4.798,58.205,3.534,58.205C3.534,58.205,-9.821,58.205,-9.821,58.205C-11.137,58.205,-12.204,57.138,-12.204,55.822C-12.204,55.822,-12.204,-55.822,-12.204,-55.822C-12.204,-57.138,-11.137,-58.205,-9.821,-58.205C-9.821,-58.205,9.821,-58.205,9.821,-58.205C11.19,-58.205,12.277,-57.054,12.2,-55.688Z" /></g></g></g><g id="Group 7" transform="matrix(1,0,0,1,0,0)"><g id="Group 1" transform="matrix(1,0,0,1,987.779,757.506)"><g id="Group 1"><path fill="#000072" fill-opacity="1" d="M63.739,-63.616C63.739,-63.616,51.763,52.6,51.763,52.6C50.692,62.987,41.951,70.879,31.509,70.879C31.509,70.879,-29.408,70.879,-29.408,70.879C-40.954,70.879,-50.634,62.148,-51.815,50.669C-51.815,50.669,-63.747,-65.117,-63.747,-65.117C-63.957,-67.17,-63.615,-69.135,-62.842,-70.879C-62.842,-70.879,-51.815,36.165,-51.815,36.165C-50.634,47.644,-40.954,56.375,-29.408,56.375C-29.408,56.375,31.509,56.375,31.509,56.375C41.951,56.375,50.692,48.483,51.763,38.097C51.763,38.097,62.878,-69.731,62.878,-69.731C63.64,-67.866,63.96,-65.779,63.739,-63.616Z" /></g></g></g><g id="Group 6" transform="matrix(1,0,0,1,0,0)"><g id="Group 1" transform="matrix(1,0,0,1,987.78,690.069)"><g id="Group 1"><path fill="#ffffff" fill-opacity="1" d="M63.738,4.846C63.738,4.846,63.285,9.294,63.285,9.294C61.729,4.018,56.85,0.088,50.978,0.088C50.978,0.088,-52.335,0.088,-52.335,0.088C-57.49,0.088,-61.783,3.465,-63.262,8.035C-63.262,8.035,-63.748,3.344,-63.748,3.344C-64.443,-3.411,-59.134,-9.294,-52.335,-9.294C-52.335,-9.294,50.978,-9.294,50.978,-9.294C56.916,-9.294,61.839,-5.276,63.329,0.088C63.759,1.578,63.915,3.19,63.738,4.846Z" /></g></g></g><g id="Group 5" transform="matrix(1,0,0,1,0,0)"><g id="Group 1" transform="matrix(1,0,0,1,987.782,756.115)"><g id="Group 1"><path fill="#000072" fill-opacity="1" d="M31.503,78.184C31.503,78.184,-29.41,78.184,-29.41,78.184C-42.983,78.184,-54.267,68.003,-55.659,54.501C-55.659,54.501,-67.589,-61.28,-67.589,-61.28C-68.033,-65.59,-66.623,-69.907,-63.721,-73.123C-60.819,-76.339,-56.67,-78.184,-52.337,-78.184C-52.337,-78.184,50.98,-78.184,50.98,-78.184C55.696,-78.184,60.213,-76.175,63.372,-72.674C66.531,-69.173,68.065,-64.474,67.581,-59.783C67.581,-59.783,55.607,56.436,55.607,56.436C54.33,68.834,43.968,78.184,31.503,78.184ZM-52.337,-70.458C-54.518,-70.458,-56.524,-69.566,-57.984,-67.947C-59.446,-66.328,-60.126,-64.242,-59.903,-62.072C-59.903,-62.072,-47.974,53.709,-47.974,53.709C-46.989,63.257,-39.009,70.458,-29.41,70.458C-29.41,70.458,31.503,70.458,31.503,70.458C39.993,70.458,47.051,64.089,47.921,55.644C47.921,55.644,59.896,-60.576,59.896,-60.576C60.159,-63.133,59.356,-65.591,57.635,-67.499C55.914,-69.407,53.55,-70.458,50.98,-70.458C50.98,-70.458,-52.337,-70.458,-52.337,-70.458Z" /></g></g></g><g id="Group 4" transform="matrix(1,0,0,1,0,0)"><g id="Group 1" transform="matrix(1,0,0,1,951.282,661.879)"><g id="Group 1"><path fill="#000072" fill-opacity="1" d="M-15.836,23.779C-16.884,23.779,-17.926,23.355,-18.689,22.521C-30.06,10.077,-27.643,-3.568,-20.585,-10.98C-14.45,-17.423,-5.895,-19.04,1.653,-15.637C3.755,-19.973,8.043,-22.826,12.205,-23.566C18.604,-24.702,24.156,-21.225,26.347,-14.704C27.027,-12.682,25.938,-10.491,23.916,-9.812C21.893,-9.132,19.702,-10.221,19.023,-12.243C17.794,-15.899,15.374,-16.28,13.557,-15.958C10.781,-15.465,7.965,-12.961,8.058,-9.626C8.1,-8.111,7.253,-6.71,5.889,-6.046C4.525,-5.381,2.9,-5.576,1.733,-6.543C-4.401,-11.618,-11.085,-9.754,-14.989,-5.653C-19.809,-0.59,-21.059,8.473,-12.985,17.309C-11.545,18.884,-11.657,21.328,-13.231,22.767C-13.972,23.444,-14.905,23.779,-15.836,23.779Z" /></g></g></g><g id="Group 3" transform="matrix(1,0,0,1,0,0)"><g id="Group 1" transform="matrix(1,0,0,1,982.743,636.42)"><g id="Group 1"><path fill="#000072" fill-opacity="1" d="M-13.02,10.393C-13.354,10.393,-13.693,10.349,-14.031,10.258C-16.09,9.701,-17.309,7.58,-16.752,5.52C-14.269,-3.661,-7.948,-9.74,-0.257,-10.344C6.794,-10.905,13.214,-6.609,16.549,0.841C17.421,2.788,16.548,5.073,14.601,5.945C12.655,6.817,10.369,5.946,9.497,3.998C7.505,-0.452,4.088,-2.941,0.349,-2.641C-3.993,-2.3,-7.687,1.6,-9.292,7.537C-9.758,9.259,-11.318,10.393,-13.02,10.393Z" /></g></g></g><g id="Group 2" transform="matrix(1,0,0,1,0,0)"><g id="Group 1" transform="matrix(1,0,0,1,1027.297,638.726)"><g id="Group 1"><path fill="#000072" fill-opacity="1" d="M34.701,18.602C34.475,18.602,34.248,18.583,34.018,18.542C31.918,18.168,30.518,16.161,30.892,14.061C31.844,8.718,30.841,4.896,28.069,3.301C24.821,1.433,19.608,2.621,15.393,6.191C14.409,7.024,13.076,7.312,11.837,6.959C10.598,6.606,9.617,5.659,9.22,4.433C5.459,-7.189,-5.194,-9.931,-9.6,-10.57C-18.75,-11.898,-27.926,-8.773,-31.907,-2.97C-33.115,-1.209,-35.522,-0.762,-37.279,-1.969C-39.038,-3.176,-39.486,-5.581,-38.279,-7.34C-32.609,-15.608,-20.642,-19.975,-8.491,-18.217C1.852,-16.716,10.178,-11.007,14.609,-2.605C20.49,-5.822,27.02,-6.216,31.922,-3.395C37.644,-0.102,40.041,6.754,38.499,15.416C38.165,17.287,36.537,18.602,34.701,18.602Z" /></g></g></g><g id="Group 1" transform="matrix(1,0,0,1,0,0)"><g id="Group 1" transform="matrix(1,0,0,1,1079.42,658.245)"><g id="Group 1"><path fill="#000072" fill-opacity="1" d="M17.04,15.75C14.978,15.75,13.265,14.12,13.183,12.041C12.787,2.101,6.8,-2.895,3.266,-4.989C-2.611,-8.47,-9.905,-8.98,-15.322,-6.288C-17.23,-5.336,-19.55,-6.117,-20.501,-8.028C-21.451,-9.939,-20.671,-12.256,-18.761,-13.206C-10.94,-17.094,-0.991,-16.49,7.204,-11.636C15.514,-6.712,20.508,1.805,20.903,11.733C20.988,13.865,19.328,15.662,17.197,15.747C17.144,15.749,17.092,15.75,17.04,15.75Z" /></g></g></g></g><g id="Layer 54"><g transform="translate(918.911,647.586)"><g transform="rotate(69)"><animateTransform repeatCount="indefinite" type="rotate" attributeName="transform" dur="4.3s" begin="0s" calcMode="spline" values="69; 0; 0; 69; 69" keyTimes="0; 0.112403; 0.736434; 0.856589; 1" keySplines="0.333 0 0.667 1; 0.167 0 0.833 1; 0.167 0 0.667 1; 0 0 1 1" fill="freeze" /><g transform="scale(1,1) translate(-918.911,-647.586)"><g id="Group 1" transform="matrix(1,0,0,1,935.911,616.086)"><g id="Group 1"><path d="M-30.673,18.562C12.756,-82.348,64.231,-55.592,36.703,20.335C36.703,20.335,34.784,28.627,28.674,39.863C22.564,51.099,5.805,51.263,-16.998,44.944C-39.801,38.625,-29.731,32.849,-29.731,32.849" fill="#60547b" fill-opacity="1"><animate repeatCount="indefinite" attributeName="d" dur="4.3s" begin="0s" calcMode="spline" values="M-30.673,18.562C12.756,-82.348,64.231,-55.592,36.703,20.335C36.703,20.335,34.784,28.627,28.674,39.863C22.564,51.099,5.805,51.263,-16.998,44.944C-39.801,38.625,-29.731,32.849,-29.731,32.849; M-43.348,15.304C0.081,-85.606,62.731,-56.092,35.203,19.835C35.203,19.835,27.09,29.414,18.674,34.362C7.649,40.845,-4.41,46.914,-16.998,44.944C-40.376,41.285,-43.348,15.304,-43.348,15.304; M-43.348,15.304C0.081,-85.606,62.731,-56.092,35.203,19.835C35.203,19.835,27.09,29.414,18.674,34.362C7.649,40.845,-4.41,46.914,-16.998,44.944C-40.376,41.285,-43.348,15.304,-43.348,15.304; M-30.673,18.562C12.756,-82.348,64.231,-55.592,36.703,20.335C36.703,20.335,34.784,28.627,28.674,39.863C22.564,51.099,5.805,51.263,-16.998,44.944C-39.801,38.625,-29.731,32.849,-29.731,32.849; M-30.673,18.562C12.756,-82.348,64.231,-55.592,36.703,20.335C36.703,20.335,34.784,28.627,28.674,39.863C22.564,51.099,5.805,51.263,-16.998,44.944C-39.801,38.625,-29.731,32.849,-29.731,32.849" keyTimes="0; 0.112403; 0.736435; 0.856589; 1" keySplines="0.333 0 0.667 1; 0.167 0 0.667 1; 0.167 0 0.667 1; 0 0 1 1" fill="freeze" /></path></g></g></g></g></g></g><g id="Layer 54"><g transform="translate(918.911,647.586)"><g transform="rotate(69)"><animateTransform repeatCount="indefinite" type="rotate" attributeName="transform" dur="4.3s" begin="0s" calcMode="spline" values="69; 0; 0; 69; 69" keyTimes="0; 0.112403; 0.736434; 0.856589; 1" keySplines="0.333 0 0.667 1; 0.167 0 0.833 1; 0.167 0 0.667 1; 0 0 1 1" fill="freeze" /><g transform="scale(1,1) translate(-918.911,-647.586)"><g transform="matrix(1,0,0,1,0,0)" id="Layer 55"><g id="Group 1" transform="matrix(1,0,0,1,935.992,600.557)"><g id="Group 1"><path d="M30.5,66.835C30.062,66.835,28.237,67.569,27.802,67.411C25.796,66.684,26.118,63.652,26.868,61.654C43.733,16.72,38.221,-25.435,24.635,-30.821C8.793,-37.1,-6.938,1.113,-29.511,53.481C-30.356,55.439,-32.626,56.344,-34.588,55.499C-36.547,54.654,-37.452,52.381,-36.607,50.422C-10.296,-10.615,9.581,-45.099,27.483,-38.004C44.875,-31.109,53.994,6.734,34.132,64.287C33.587,65.867,32.079,66.835,30.5,66.835Z" fill="#000072" fill-opacity="1"><animate repeatCount="indefinite" attributeName="d" dur="4.3s" begin="0s" calcMode="spline" values="M30.5,66.835C30.062,66.835,28.237,67.569,27.802,67.411C25.796,66.684,26.118,63.652,26.868,61.654C43.733,16.72,38.221,-25.435,24.635,-30.821C8.793,-37.1,-6.938,1.113,-29.511,53.481C-30.356,55.439,-32.626,56.344,-34.588,55.499C-36.547,54.654,-37.452,52.381,-36.607,50.422C-10.296,-10.615,9.581,-45.099,27.483,-38.004C44.875,-31.109,53.994,6.734,34.132,64.287C33.587,65.867,32.079,66.835,30.5,66.835Z; M36.621,39.728C36.183,39.728,-4.261,64.153,-4.696,63.995C-6.702,63.268,-8.99,59.845,-7.011,59.047C56.508,33.443,38.221,-25.435,24.635,-30.821C8.792,-37.1,-17.309,-20.007,-39.882,32.361C-40.727,34.319,-42.997,35.225,-44.959,34.38C-46.918,33.535,-47.822,31.261,-46.977,29.302C-20.666,-31.735,11.322,-48.475,27.483,-38.004C49.008,-24.057,63.008,41.443,0.253,61.68C-1.338,62.193,38.2,39.728,36.621,39.728Z; M36.621,39.728C36.183,39.728,-4.261,64.153,-4.696,63.995C-6.702,63.268,-8.99,59.845,-7.011,59.047C56.508,33.443,38.221,-25.435,24.635,-30.821C8.792,-37.1,-17.309,-20.007,-39.882,32.361C-40.727,34.319,-42.997,35.225,-44.959,34.38C-46.918,33.535,-47.822,31.261,-46.977,29.302C-20.666,-31.735,11.322,-48.475,27.483,-38.004C49.008,-24.057,63.008,41.443,0.253,61.68C-1.338,62.193,38.2,39.728,36.621,39.728Z; M30.5,66.835C30.062,66.835,28.237,67.569,27.802,67.411C25.796,66.684,26.118,63.652,26.868,61.654C43.733,16.72,38.221,-25.435,24.635,-30.821C8.793,-37.1,-6.938,1.113,-29.511,53.481C-30.356,55.439,-32.626,56.344,-34.588,55.499C-36.547,54.654,-37.452,52.381,-36.607,50.422C-10.296,-10.615,9.581,-45.099,27.483,-38.004C44.875,-31.109,53.994,6.734,34.132,64.287C33.587,65.867,32.079,66.835,30.5,66.835Z; M30.5,66.835C30.062,66.835,28.237,67.569,27.802,67.411C25.796,66.684,26.118,63.652,26.868,61.654C43.733,16.72,38.221,-25.435,24.635,-30.821C8.793,-37.1,-6.938,1.113,-29.511,53.481C-30.356,55.439,-32.626,56.344,-34.588,55.499C-36.547,54.654,-37.452,52.381,-36.607,50.422C-10.296,-10.615,9.581,-45.099,27.483,-38.004C44.875,-31.109,53.994,6.734,34.132,64.287C33.587,65.867,32.079,66.835,30.5,66.835Z" keyTimes="0; 0.112403; 0.736435; 0.856589; 1" keySplines="0.333 0 0.667 1; 0.167 0 0.667 1; 0.167 0 0.667 1; 0 0 1 1" fill="freeze" /></path></g></g></g></g></g></g></g></svg>